<?xml version="1.0" standalone="no"?>
<!DOCTYPE svg PUBLIC "-//W3C//DTD SVG 20010904//EN"
 "http://www.w3.org/TR/2001/REC-SVG-20010904/DTD/svg10.dtd">
<svg version="1.0" xmlns="http://www.w3.org/2000/svg"
 width="960.000000pt" height="960.000000pt" viewBox="0 0 960.000000 960.000000"
 preserveAspectRatio="xMidYMid meet">

<g transform="translate(0.000000,960.000000) scale(0.100000,-0.100000)"
fill="#000000" stroke="none">
<path d="M4660 8425 c-228 -52 -420 -249 -477 -492 -17 -73 -18 -143 -18
-1033 l0 -955 23 -78 c33 -117 79 -201 149 -277 134 -145 301 -209 512 -197
233 13 435 142 538 344 81 159 78 117 78 1173 0 867 -1 940 -18 1009 -57 235
-208 407 -427 486 -94 34 -257 43 -360 20z"/>
<path d="M5796 7715 c-23 -23 -25 -48 -30 -481 -5 -348 -4 -408 10 -455 22
-75 74 -121 214 -191 131 -65 241 -150 396 -303 367 -363 583 -817 635 -1338
7 -64 18 -125 25 -135 15 -20 32 -21 544 -9 195 5 369 13 386 18 61 19 65 73
23 352 -51 345 -152 662 -308 968 -320 630 -768 1083 -1371 1388 -203 103
-442 201 -491 201 -10 0 -24 -7 -33 -15z"/>
<path d="M3600 7656 c-322 -113 -699 -324 -959 -538 -538 -444 -949 -1142
-1085 -1844 -45 -236 -62 -448 -37 -477 7 -9 27 -19 45 -21 17 -3 223 -10 458
-17 504 -14 473 -20 482 88 48 540 246 984 606 1357 166 172 285 266 430 340
69 36 142 81 162 100 44 42 67 110 69 201 2 101 -12 769 -17 792 -5 25 -30 53
-47 53 -7 0 -55 -15 -107 -34z"/>
<path d="M4650 5122 c-47 -25 -95 -107 -115 -196 -35 -150 -41 -420 -14 -608
24 -171 86 -258 184 -258 102 0 165 81 190 248 6 40 5 42 -18 42 -22 0 -25 -5
-31 -47 -4 -27 -18 -71 -31 -98 -61 -128 -179 -106 -225 42 -30 99 -45 330
-32 495 17 205 56 304 127 328 30 10 41 9 72 -7 44 -22 69 -67 84 -152 10 -55
14 -62 33 -59 18 3 21 9 18 48 -13 182 -124 284 -242 222z"/>
<path d="M5710 5129 c-88 -35 -131 -143 -152 -381 -9 -104 -9 -172 0 -285 22
-289 79 -403 201 -403 114 0 176 103 201 332 21 201 8 469 -30 590 -39 126
-127 184 -220 147z m107 -69 c69 -42 93 -138 100 -405 9 -363 -40 -535 -153
-535 -53 0 -100 48 -124 127 -43 139 -51 480 -16 644 34 158 107 222 193 169z"/>
<path d="M4094 5121 c-2 -2 -4 -240 -4 -528 l0 -523 165 0 165 0 0 30 0 30
-140 0 -139 0 -3 235 -3 235 133 0 132 0 0 30 0 30 -130 0 -130 0 0 203 0 202
135 -3 135 -4 0 34 0 33 -156 0 c-86 0 -158 -2 -160 -4z"/>
<path d="M5025 5122 c-3 -3 -5 -241 -5 -529 l0 -524 23 3 22 3 -3 485 c-2 266
-1 482 2 479 4 -3 19 -53 36 -111 16 -58 69 -240 118 -404 49 -165 100 -334
112 -377 23 -77 24 -78 54 -75 l31 3 0 524 0 524 -23 4 -23 3 3 -475 c2 -261
0 -475 -4 -475 -5 0 -8 6 -8 13 0 12 -195 676 -253 862 -20 64 -24 70 -49 71
-15 1 -30 -1 -33 -4z"/>
<path d="M3602 5093 c3 -28 3 -28 91 -31 l87 -3 0 -494 c0 -488 0 -495 20
-495 20 0 20 7 20 495 l0 495 53 1 c28 1 69 0 90 -1 35 -1 37 0 37 29 l0 31
-201 0 -200 0 3 -27z"/>
<path d="M7932 4703 c-5 -10 -17 -91 -27 -180 -20 -179 -18 -193 36 -193 39 0
45 16 64 170 18 151 19 192 3 208 -18 18 -66 15 -76 -5z"/>
<path d="M1546 4581 c-17 -19 -17 -27 4 -188 12 -93 27 -174 34 -181 17 -17
63 -6 76 18 11 21 -25 337 -42 357 -15 19 -52 16 -72 -6z"/>
<path d="M7032 4585 c-101 -44 -55 -201 52 -181 44 8 64 25 74 61 24 84 -49
153 -126 120z"/>
<path d="M2449 4507 c-43 -33 -51 -102 -16 -142 17 -20 32 -26 63 -27 57 -1
79 15 99 66 15 40 15 46 1 74 -8 16 -23 32 -31 36 -28 10 -99 6 -116 -7z"/>
<path d="M6973 4213 c-57 -11 -99 -101 -68 -149 40 -61 156 -34 179 43 7 21
-14 86 -30 95 -16 9 -59 15 -81 11z"/>
<path d="M2529 4132 c-54 -48 -39 -135 25 -148 55 -10 105 12 123 54 40 97
-68 166 -148 94z"/>
<path d="M7847 4118 c-8 -13 -34 -92 -57 -177 l-44 -154 23 -18 c29 -24 58
-24 70 -1 17 32 92 286 93 316 2 52 -59 76 -85 34z"/>
<path d="M1632 3998 c-19 -19 -15 -41 36 -208 45 -149 48 -155 75 -158 34 -4
57 13 57 42 0 29 -79 308 -92 324 -13 15 -60 16 -76 0z"/>
<path d="M4760 3981 c-125 -18 -208 -112 -251 -281 -21 -85 -19 -433 4 -525
36 -142 88 -218 177 -257 59 -26 205 -22 262 6 138 67 195 242 185 566 -6 181
-18 249 -60 339 -53 112 -177 172 -317 152z m112 -222 c30 -40 41 -153 35
-369 -5 -194 -13 -245 -45 -282 -15 -18 -47 -23 -77 -12 -48 19 -70 165 -62
414 5 173 14 227 45 263 23 26 80 19 104 -14z"/>
<path d="M5462 3978 c-147 -22 -225 -122 -226 -288 0 -145 55 -229 212 -323
42 -25 91 -59 109 -75 52 -49 64 -130 27 -189 -12 -18 -24 -23 -59 -23 -37 0
-47 5 -64 29 -12 16 -21 37 -21 48 0 10 -3 28 -6 41 -6 22 -9 23 -113 20
l-106 -3 3 -40 c7 -108 64 -204 146 -248 35 -19 56 -22 156 -22 129 0 165 12
227 77 56 58 77 120 77 228 0 82 -3 103 -26 152 -33 70 -89 124 -198 189 -106
64 -138 93 -146 136 -13 68 16 113 71 113 41 0 60 -24 70 -87 l7 -43 105 0
106 0 -7 57 c-8 72 -43 148 -86 190 -54 52 -157 77 -258 61z"/>
<path d="M3970 3959 c-60 -27 -115 -88 -135 -150 -24 -72 -17 -218 13 -275 27
-52 101 -119 192 -173 39 -23 86 -58 105 -76 84 -85 35 -237 -66 -203 -29 10
-59 55 -59 90 0 45 -10 49 -121 46 l-104 -3 4 -45 c4 -61 37 -145 73 -185 16
-19 55 -46 85 -61 52 -24 64 -26 157 -22 88 3 108 7 153 32 88 48 143 155 143
279 0 150 -65 243 -243 348 -118 69 -145 106 -133 175 9 45 30 64 71 64 41 0
61 -24 71 -87 l7 -43 105 0 105 0 -6 61 c-10 113 -72 202 -164 235 -60 21
-199 18 -253 -7z"/>
<path d="M6798 3845 c-97 -54 -37 -200 73 -178 45 9 71 48 67 101 -2 34 -9 49
-28 63 -35 26 -80 32 -112 14z"/>
<path d="M2690 3807 c-60 -30 -64 -123 -7 -157 60 -37 119 -22 143 36 12 29
12 38 -2 74 -9 22 -25 45 -35 50 -25 14 -69 12 -99 -3z"/>
<path d="M7637 3546 c-12 -14 -53 -86 -92 -162 l-69 -136 28 -25 c51 -44 62
-34 156 150 82 162 84 168 66 182 -29 22 -64 18 -89 -9z"/>
<path d="M6635 3469 c-17 -12 -64 -62 -105 -111 -335 -397 -749 -652 -1240
-762 -241 -53 -590 -73 -830 -46 -559 62 -1054 333 -1430 783 -75 91 -110 117
-155 117 -35 0 -48 -8 -210 -124 -77 -55 -231 -160 -343 -234 -119 -78 -207
-143 -213 -156 -15 -32 6 -73 87 -172 258 -312 704 -658 1113 -864 330 -165
709 -281 1064 -325 344 -43 924 13 1348 129 406 112 780 302 1104 563 138 111
359 330 497 493 168 199 181 225 136 273 -13 13 -90 64 -173 113 -82 49 -229
138 -325 198 -250 156 -271 164 -325 125z"/>
<path d="M1843 3440 c-13 -5 -23 -17 -23 -26 0 -9 37 -88 81 -175 75 -147 83
-159 109 -159 29 0 60 27 60 52 0 18 -135 276 -153 294 -18 18 -50 24 -74 14z"/>
</g>
</svg>
