<?xml version="1.0" standalone="no"?>
<!DOCTYPE svg PUBLIC "-//W3C//DTD SVG 20010904//EN"
 "http://www.w3.org/TR/2001/REC-SVG-20010904/DTD/svg10.dtd">
<svg version="1.0" xmlns="http://www.w3.org/2000/svg"
 width="12011.000000pt" height="13119.000000pt" viewBox="0 0 12011.000000 13119.000000"
 preserveAspectRatio="xMidYMid meet">

<g transform="translate(0.000000,13119.000000) scale(0.100000,-0.100000)"
fill="#000000" stroke="none">
<path d="M77260 115600 c-89 -13 -211 -54 -290 -97 -68 -38 -214 -178 -240
-230 -8 -15 -22 -39 -31 -53 -33 -51 -69 -121 -69 -136 0 -8 -11 -36 -24 -62
-50 -100 -129 -433 -146 -622 -5 -52 -16 -153 -24 -223 -72 -607 -94 -1955
-80 -5017 13 -3042 12 -3945 -9 -4280 -9 -151 -26 -435 -37 -630 -12 -195 -37
-584 -56 -865 -38 -545 -45 -665 -69 -1180 -30 -637 -35 -794 -35 -1250 0
-444 9 -754 31 -1015 5 -69 14 -192 19 -275 8 -143 44 -433 75 -615 8 -47 15
-98 15 -115 0 -51 81 -441 151 -725 35 -140 108 -378 150 -486 21 -56 39 -106
39 -112 0 -11 76 -187 101 -235 6 -10 29 -55 52 -100 22 -45 56 -105 74 -134
18 -29 33 -56 33 -61 0 -5 18 -34 40 -65 22 -30 40 -59 40 -63 0 -4 20 -34 45
-65 25 -32 45 -62 45 -68 0 -6 8 -15 18 -20 9 -5 31 -28 47 -51 17 -23 48 -64
70 -90 22 -26 66 -80 99 -119 131 -158 468 -469 687 -636 109 -83 137 -103
160 -116 33 -17 112 -70 119 -78 3 -3 41 -30 85 -59 44 -28 85 -55 90 -60 6
-4 42 -27 80 -51 39 -24 86 -54 105 -66 254 -162 681 -398 1075 -594 121 -60
407 -202 635 -316 408 -202 662 -332 830 -422 47 -25 126 -67 175 -94 50 -26
133 -72 185 -102 52 -31 137 -79 187 -107 51 -28 95 -55 98 -61 4 -5 13 -9 22
-9 19 0 133 -70 371 -229 63 -42 130 -87 150 -100 20 -13 43 -30 50 -38 8 -7
23 -18 35 -25 33 -17 350 -263 398 -308 17 -17 77 -66 124 -102 16 -13 37 -30
46 -38 9 -8 38 -33 64 -55 27 -22 65 -54 85 -70 19 -17 48 -39 64 -49 16 -10
40 -28 55 -41 45 -39 274 -234 326 -278 63 -54 381 -330 420 -366 101 -93 373
-329 386 -337 15 -8 125 -107 223 -199 18 -16 72 -66 121 -110 49 -44 104 -93
121 -110 18 -16 78 -73 135 -125 57 -52 120 -111 139 -130 92 -89 326 -308
353 -330 50 -40 203 -189 645 -625 482 -476 580 -576 887 -900 94 -99 188
-198 210 -220 21 -22 86 -92 143 -155 57 -63 111 -119 120 -124 9 -5 24 -18
32 -29 8 -11 31 -36 51 -56 20 -20 157 -171 304 -336 146 -165 284 -320 306
-344 21 -24 39 -46 39 -49 0 -6 62 -74 177 -194 46 -48 83 -90 83 -93 0 -4 33
-43 73 -88 39 -45 75 -86 79 -92 11 -15 161 -191 224 -262 29 -34 54 -65 54
-69 0 -4 19 -28 43 -54 23 -26 58 -67 77 -90 124 -153 192 -236 245 -298 33
-38 83 -98 110 -132 28 -34 67 -82 88 -105 20 -23 37 -46 37 -50 0 -4 17 -27
38 -50 20 -24 62 -76 92 -115 30 -40 70 -89 88 -110 17 -21 32 -42 32 -47 0
-5 12 -20 26 -34 14 -13 40 -44 57 -69 17 -25 43 -61 59 -80 67 -81 118 -149
118 -158 0 -5 10 -16 23 -25 12 -8 36 -34 52 -58 16 -24 43 -61 60 -81 16 -20
49 -63 73 -95 93 -127 140 -191 182 -248 24 -33 62 -85 85 -115 22 -30 48 -66
58 -80 9 -14 42 -59 72 -100 30 -41 71 -97 90 -125 19 -27 61 -84 95 -125 33
-41 63 -82 66 -90 4 -8 26 -40 50 -72 24 -31 44 -59 44 -63 0 -4 16 -28 35
-53 45 -60 101 -139 123 -175 9 -16 34 -51 55 -77 20 -26 37 -51 37 -55 0 -4
17 -30 38 -58 20 -28 46 -65 57 -83 11 -18 47 -72 80 -119 33 -48 67 -99 75
-113 8 -15 20 -31 26 -37 17 -17 74 -92 74 -99 0 -7 48 -80 127 -196 21 -30
41 -62 45 -72 4 -10 26 -42 48 -71 22 -30 40 -57 40 -61 0 -4 18 -33 40 -65
22 -31 40 -60 40 -64 0 -4 20 -35 45 -69 25 -34 45 -66 45 -71 0 -5 18 -34 40
-64 22 -31 40 -61 40 -66 0 -11 71 -110 82 -115 5 -2 8 -8 8 -14 0 -6 20 -39
45 -75 25 -35 45 -67 45 -71 0 -4 18 -34 40 -67 22 -33 40 -64 40 -68 0 -5 20
-37 45 -71 25 -35 45 -67 45 -72 0 -5 18 -36 40 -69 22 -33 40 -64 40 -68 0
-4 17 -34 38 -65 21 -31 45 -70 54 -87 17 -34 36 -67 164 -274 49 -80 92 -153
97 -164 4 -11 23 -46 42 -78 109 -184 104 -174 196 -346 22 -40 53 -94 69
-120 17 -26 30 -51 30 -56 0 -5 20 -42 45 -81 25 -40 45 -77 45 -83 0 -6 16
-35 36 -64 20 -30 40 -64 45 -76 4 -12 26 -52 49 -88 22 -37 40 -72 40 -79 0
-6 7 -22 16 -35 9 -12 33 -55 54 -94 20 -40 63 -121 95 -182 32 -60 98 -189
147 -285 49 -96 96 -182 104 -191 8 -8 14 -22 14 -29 0 -7 18 -44 40 -82 22
-39 40 -75 40 -81 0 -7 20 -47 45 -91 25 -43 45 -81 45 -85 0 -3 38 -85 85
-181 84 -172 146 -301 198 -410 14 -30 33 -66 40 -80 8 -14 36 -72 62 -130 48
-105 83 -180 169 -363 25 -53 46 -102 46 -107 0 -6 20 -51 45 -101 25 -50 45
-96 45 -101 0 -10 28 -70 121 -266 27 -57 49 -110 49 -118 0 -8 18 -50 40 -94
22 -44 40 -86 40 -93 0 -8 20 -57 45 -109 25 -53 45 -100 45 -107 0 -6 20 -55
45 -108 25 -53 45 -101 45 -107 0 -10 13 -43 124 -297 25 -59 46 -112 46 -119
0 -7 18 -53 40 -102 22 -50 40 -96 40 -103 0 -7 20 -58 45 -115 25 -57 45
-109 45 -117 0 -8 20 -62 45 -120 25 -58 45 -111 45 -119 0 -8 18 -54 40 -103
22 -49 40 -95 40 -104 0 -8 20 -64 43 -123 41 -101 55 -140 109 -299 12 -33
41 -112 65 -175 23 -63 43 -121 43 -129 0 -8 20 -65 45 -127 25 -61 45 -118
45 -126 0 -7 18 -60 40 -118 22 -58 40 -111 40 -118 0 -8 20 -71 44 -141 100
-291 119 -348 126 -386 5 -22 23 -78 40 -125 17 -47 36 -103 42 -125 6 -22 28
-94 48 -160 99 -313 123 -394 135 -450 8 -33 30 -107 49 -164 20 -58 36 -113
36 -122 0 -9 18 -70 40 -136 22 -65 40 -127 40 -138 0 -11 20 -85 45 -165 24
-80 45 -154 45 -165 0 -12 18 -81 40 -154 22 -73 40 -141 40 -151 0 -10 20
-86 45 -168 25 -82 45 -158 45 -169 0 -11 18 -85 41 -164 22 -79 46 -175 53
-214 7 -38 28 -128 46 -200 103 -412 120 -482 120 -499 0 -10 18 -92 40 -182
22 -90 40 -172 40 -181 0 -10 20 -108 45 -218 87 -393 204 -972 216 -1075 4
-36 14 -90 22 -120 8 -30 26 -125 41 -210 15 -85 45 -254 67 -375 21 -121 39
-234 39 -251 0 -16 11 -86 24 -155 26 -134 41 -230 110 -694 66 -445 127 -895
126 -934 0 -18 18 -164 40 -325 23 -160 45 -354 50 -431 6 -77 12 -151 15
-165 11 -56 65 -599 65 -656 0 -34 18 -284 40 -555 23 -272 45 -566 50 -654
15 -273 63 -574 115 -730 55 -166 64 -185 120 -269 180 -272 453 -371 1120
-407 327 -18 1628 6 3345 61 858 28 1372 45 2300 80 3310 123 4267 154 5925
191 264 5 1036 14 1715 19 1305 10 1368 12 1637 60 154 27 314 70 378 99 11 6
54 24 95 42 76 32 253 142 279 172 7 10 18 17 24 17 15 0 111 109 161 182 43
64 136 247 136 269 0 7 13 53 29 103 63 197 86 415 86 811 0 355 -22 749 -76
1340 -17 182 -34 393 -39 470 -9 158 -64 715 -116 1185 -20 173 -40 360 -45
415 -5 55 -30 255 -54 445 -25 190 -45 361 -45 380 0 20 -13 126 -30 235 -34
230 -45 314 -59 440 -12 105 -64 455 -121 810 -22 138 -40 263 -40 278 0 15
-20 140 -45 277 -25 137 -45 262 -45 278 0 16 -20 132 -45 258 -25 126 -45
240 -45 254 0 27 -73 432 -145 800 -14 74 -33 171 -41 215 -30 158 -67 343
-101 505 -20 91 -40 192 -46 225 -5 33 -29 146 -53 252 -24 105 -44 201 -44
213 0 22 -46 230 -126 565 -25 105 -45 197 -44 205 0 8 -18 89 -40 180 -22 91
-61 253 -86 360 -26 107 -67 270 -91 362 -23 92 -43 174 -43 184 0 10 -18 82
-40 160 -22 79 -40 151 -40 161 0 10 -20 92 -45 183 -107 388 -125 456 -125
471 0 9 -20 83 -45 165 -25 82 -45 157 -45 168 0 10 -18 77 -40 148 -22 72
-40 137 -40 145 0 9 -20 79 -45 157 -25 79 -45 151 -45 162 0 10 -21 80 -45
154 -25 74 -45 144 -45 155 0 12 -18 75 -40 140 -22 65 -40 127 -40 137 0 10
-20 80 -44 156 -25 75 -63 200 -87 277 -76 254 -131 428 -171 550 -22 66 -44
136 -48 155 -4 19 -24 79 -44 134 -20 54 -36 106 -36 115 0 9 -20 72 -44 141
-24 69 -63 186 -86 260 -53 166 -118 356 -176 516 -24 66 -44 126 -44 134 0 7
-17 61 -39 119 -39 108 -78 218 -114 326 -11 33 -38 105 -59 161 -21 55 -38
110 -38 120 0 11 -4 24 -9 30 -11 12 -81 191 -81 207 0 8 -18 58 -40 112 -22
54 -40 103 -40 109 0 10 -29 87 -136 366 -25 63 -44 120 -44 127 0 6 -18 51
-40 98 -22 47 -40 92 -40 100 0 8 -20 62 -45 119 -25 58 -45 112 -45 120 0 7
-18 54 -40 104 -22 49 -40 96 -40 105 0 8 -20 60 -45 116 -25 56 -45 106 -45
111 0 11 -77 201 -136 333 -19 43 -34 84 -34 90 0 7 -20 57 -45 112 -25 55
-45 105 -45 111 0 7 -18 51 -40 99 -22 48 -40 93 -40 100 0 6 -20 55 -45 108
-25 53 -45 102 -45 109 0 7 -20 56 -44 108 -24 52 -63 140 -86 195 -23 55 -62
145 -86 200 -24 55 -44 103 -44 108 0 4 -18 46 -40 93 -22 47 -40 90 -40 94 0
5 -20 51 -45 102 -25 51 -45 98 -45 104 0 6 -38 91 -85 189 -47 97 -85 183
-85 191 0 7 -20 55 -44 106 -24 51 -63 136 -86 188 -23 52 -61 136 -84 185
-24 50 -62 133 -86 185 -24 52 -83 177 -132 278 -48 100 -88 187 -88 193 0 6
-17 45 -39 87 -38 76 -87 178 -171 357 -54 114 -66 139 -151 310 -39 77 -89
178 -112 225 -22 47 -51 105 -63 130 -38 76 -66 134 -79 160 -12 27 -47 97
-98 195 -17 33 -36 71 -43 85 -30 66 -69 137 -86 159 -10 13 -18 29 -18 36 0
7 -18 44 -40 83 -22 38 -40 74 -40 80 0 6 -20 46 -45 88 -25 41 -45 80 -45 86
0 5 -18 40 -40 78 -22 38 -40 75 -40 82 0 8 -4 18 -9 24 -9 8 -32 52 -166 309
-58 112 -114 213 -142 258 -13 21 -28 50 -34 64 -5 14 -25 52 -44 85 -19 32
-35 63 -35 69 0 5 -12 28 -26 50 -28 44 -104 184 -142 263 -13 27 -40 73 -58
102 -19 29 -34 58 -34 63 0 6 -20 43 -45 83 -25 40 -45 78 -45 85 0 6 -6 18
-13 25 -20 21 -67 97 -67 108 0 5 -20 41 -45 80 -25 39 -45 75 -45 80 0 6 -18
39 -40 74 -22 35 -40 67 -40 71 0 5 -20 41 -45 81 -25 39 -45 75 -45 80 0 4
-20 40 -45 80 -25 39 -45 75 -45 79 0 4 -18 36 -40 71 -22 35 -40 66 -40 70 0
3 -38 68 -85 143 -47 76 -85 141 -85 145 0 4 -20 39 -45 77 -25 38 -45 72 -45
76 0 3 -20 39 -45 79 -25 39 -45 75 -45 78 0 4 -18 34 -40 66 -22 32 -40 63
-40 69 0 5 -20 40 -45 78 -25 37 -45 72 -45 76 0 4 -17 34 -38 65 -21 31 -41
64 -44 73 -3 8 -45 75 -92 147 -47 73 -86 136 -86 140 0 4 -18 34 -40 67 -22
33 -40 64 -40 69 0 4 -20 37 -45 73 -25 35 -45 68 -45 72 0 5 -18 35 -40 67
-22 33 -40 63 -40 68 0 5 -20 37 -45 72 -25 34 -45 67 -45 72 0 5 -17 33 -38
63 -21 30 -41 62 -45 72 -3 9 -24 43 -44 75 -21 32 -42 65 -48 73 -17 27 -86
131 -126 191 -22 31 -39 61 -39 66 0 4 -20 36 -45 70 -25 34 -45 66 -45 70 0
5 -18 34 -40 66 -22 31 -40 60 -40 64 0 5 -20 36 -45 70 -25 34 -45 65 -45 70
0 4 -20 36 -45 70 -25 34 -45 65 -45 69 0 5 -16 31 -36 58 -20 28 -39 59 -44
70 -4 11 -26 44 -49 72 -22 29 -41 55 -41 58 0 3 -18 30 -40 60 -22 30 -40 57
-40 61 0 3 -20 35 -45 70 -25 34 -45 66 -45 71 0 4 -21 35 -45 67 -25 33 -45
63 -45 68 0 5 -18 33 -40 62 -22 29 -40 56 -40 61 0 4 -18 33 -40 64 -82 115
-111 157 -123 181 -6 14 -31 51 -54 82 -24 31 -43 61 -43 66 0 5 -18 30 -40
55 -22 25 -40 48 -40 53 0 4 -11 21 -23 38 -38 50 -157 226 -157 232 0 3 -15
24 -33 47 -19 23 -42 56 -53 74 -35 59 -136 202 -150 214 -8 6 -14 16 -14 22
0 6 -19 35 -42 66 -24 31 -49 67 -56 81 -7 13 -28 43 -47 66 -19 23 -35 47
-35 52 0 5 -18 30 -40 55 -22 25 -40 48 -40 52 0 3 -20 31 -45 62 -25 30 -45
58 -45 63 0 4 -18 30 -40 56 -22 27 -40 53 -40 57 0 5 -17 30 -39 56 -21 25
-44 57 -51 71 -7 14 -30 46 -51 71 -22 26 -39 50 -39 55 0 4 -18 29 -40 55
-22 26 -40 50 -40 54 0 3 -21 34 -47 70 -27 35 -66 89 -88 120 -22 30 -59 80
-82 110 -24 29 -43 56 -43 58 0 3 -20 27 -45 53 -25 27 -45 53 -45 58 0 4 -18
30 -40 56 -22 26 -40 51 -40 55 0 4 -20 32 -45 61 -25 28 -45 55 -45 59 0 4
-17 28 -37 54 -21 25 -42 53 -48 62 -5 9 -28 39 -50 67 -34 43 -89 116 -187
247 -13 17 -42 53 -65 82 -24 28 -43 54 -43 58 0 4 -15 24 -32 45 -18 21 -55
63 -83 95 -27 31 -52 63 -55 69 -3 7 -19 30 -37 52 -110 134 -133 164 -133
170 0 4 -17 26 -37 49 -48 53 -204 251 -219 277 -7 11 -28 37 -48 57 -20 20
-36 41 -36 47 0 5 -20 30 -45 54 -25 24 -45 49 -45 55 0 6 -20 31 -45 55 -25
24 -45 50 -45 57 0 7 -14 23 -31 35 -17 13 -36 33 -42 44 -12 22 -58 77 -134
163 -24 27 -43 52 -43 57 0 6 -20 30 -45 54 -25 24 -45 49 -45 55 0 6 -12 22
-26 36 -26 23 -67 73 -325 387 -31 37 -119 138 -195 223 -77 84 -152 170 -167
189 -28 34 -148 172 -495 568 -96 108 -190 213 -210 232 -20 19 -99 105 -175
190 -76 85 -151 166 -166 180 -15 14 -74 77 -131 140 -158 176 -321 350 -470
501 -74 75 -229 235 -345 355 -291 301 -625 635 -990 991 -546 530 -720 696
-738 702 -7 2 -26 18 -42 35 -40 41 -162 155 -305 286 -63 57 -124 114 -135
125 -11 11 -65 61 -120 110 -55 50 -111 101 -125 115 -14 14 -54 50 -89 80
-35 30 -71 62 -80 71 -48 47 -210 189 -216 189 -4 0 -82 67 -173 148 -92 81
-207 183 -257 226 -49 43 -106 92 -126 110 -19 17 -59 51 -89 76 -29 25 -108
92 -174 149 -67 57 -143 122 -170 145 -27 22 -57 48 -66 56 -48 44 -120 100
-127 100 -4 0 -49 35 -99 78 -50 42 -110 93 -133 112 -24 19 -62 51 -85 70
-24 19 -62 51 -87 71 -24 20 -62 52 -85 70 -52 44 -97 80 -214 173 -52 42
-104 84 -116 94 -22 18 -82 67 -234 187 -52 41 -104 84 -115 93 -11 10 -54 42
-95 70 -41 29 -94 67 -116 85 -44 34 -165 127 -250 193 -28 21 -89 68 -135
103 -46 36 -111 86 -144 111 -33 26 -127 97 -210 159 -82 62 -158 119 -167
127 -10 7 -50 37 -90 66 -40 29 -104 76 -142 105 -38 29 -73 53 -78 53 -5 0
-26 13 -46 28 -37 29 -72 54 -204 150 -40 29 -111 81 -158 115 -47 34 -98 71
-115 81 -16 11 -38 28 -49 38 -11 10 -23 18 -28 18 -4 0 -16 8 -26 18 -10 9
-54 41 -98 71 -43 30 -106 74 -139 98 -55 40 -176 124 -458 321 -58 39 -108
72 -112 72 -7 0 -144 89 -155 100 -3 3 -79 55 -170 115 -91 61 -167 112 -170
115 -6 6 -333 223 -505 335 -466 303 -477 311 -536 343 -53 28 -92 52 -256
155 -45 29 -147 92 -225 141 -152 95 -231 145 -288 181 -56 36 -308 188 -535
323 -115 68 -222 133 -238 144 -15 10 -64 38 -110 62 -92 48 -190 103 -322
181 -49 30 -144 84 -210 121 -66 37 -122 70 -125 73 -3 3 -23 16 -45 27 -22
12 -256 142 -521 290 -411 230 -551 306 -634 344 -28 13 -255 133 -265 140 -5
4 -59 33 -120 65 -60 32 -144 76 -185 98 -81 43 -235 123 -455 237 -313 163
-906 460 -917 460 -6 0 -97 42 -202 94 -105 52 -254 124 -331 161 -305 146
-375 180 -514 246 -79 38 -145 69 -146 69 -2 0 -61 27 -132 61 -70 33 -148 70
-173 81 -25 11 -82 38 -128 59 -46 22 -85 39 -86 39 -2 0 -48 21 -102 46 -157
73 -175 81 -258 118 -43 20 -84 36 -92 36 -7 0 -41 13 -76 29 -35 16 -99 44
-143 64 -44 19 -106 46 -137 61 -31 14 -59 26 -61 26 -3 0 -38 15 -79 34 -40
18 -158 71 -263 116 -104 45 -205 88 -222 96 -75 33 -103 45 -203 87 -190 79
-322 135 -520 217 -107 44 -204 85 -215 90 -56 26 -470 190 -480 190 -11 0
-247 89 -290 110 -62 29 -516 198 -735 273 -200 69 -441 137 -625 176 -189 41
-455 59 -585 41z"/>
<path d="M40252 114809 c-296 -34 -732 -161 -1311 -380 -117 -45 -674 -265
-706 -279 -11 -5 -49 -21 -85 -35 -36 -14 -74 -30 -85 -35 -11 -5 -49 -21 -85
-35 -36 -15 -79 -33 -97 -41 -17 -8 -38 -14 -46 -14 -13 0 -63 -18 -112 -40
-11 -5 -49 -21 -85 -35 -36 -15 -78 -32 -95 -40 -16 -7 -54 -23 -84 -35 -30
-11 -73 -29 -95 -39 -23 -9 -61 -26 -86 -36 -25 -10 -78 -33 -118 -52 -41 -18
-76 -33 -79 -33 -3 0 -19 -7 -36 -15 -18 -8 -117 -51 -222 -96 -104 -44 -214
-92 -243 -105 -29 -13 -54 -24 -57 -24 -2 0 -32 -13 -67 -29 -130 -60 -179
-81 -183 -81 -3 0 -33 -13 -67 -29 -35 -16 -106 -48 -158 -71 -52 -24 -124
-56 -160 -72 -36 -17 -103 -47 -150 -68 -47 -21 -119 -53 -160 -72 -41 -20
-87 -38 -102 -42 -15 -3 -84 -33 -153 -66 -70 -33 -128 -60 -130 -60 -2 0 -61
-27 -132 -61 -70 -34 -155 -74 -188 -89 -33 -15 -123 -58 -200 -95 -77 -37
-194 -93 -260 -125 -294 -141 -884 -432 -1000 -494 -16 -9 -35 -16 -42 -16
-11 0 -139 -64 -548 -275 -88 -45 -196 -101 -239 -124 -44 -24 -136 -72 -205
-108 -69 -37 -161 -86 -203 -110 -43 -23 -80 -43 -83 -43 -3 0 -40 -20 -83
-44 -42 -24 -122 -67 -177 -96 -55 -29 -155 -83 -221 -121 -67 -37 -150 -81
-185 -98 -72 -34 -130 -66 -490 -269 -292 -165 -554 -315 -684 -391 -49 -30
-117 -69 -150 -89 -33 -19 -73 -43 -90 -53 -16 -10 -50 -30 -75 -44 -25 -14
-81 -48 -125 -75 -44 -27 -114 -67 -155 -88 -41 -22 -138 -78 -215 -125 -77
-48 -160 -98 -185 -112 -25 -14 -65 -39 -90 -55 -25 -16 -63 -39 -85 -51 -22
-12 -42 -25 -45 -29 -3 -4 -21 -15 -40 -25 -19 -10 -46 -26 -60 -35 -14 -9
-43 -28 -65 -42 -22 -14 -80 -51 -130 -82 -49 -31 -128 -81 -175 -111 -187
-118 -350 -222 -434 -278 -33 -21 -94 -57 -135 -79 -42 -23 -78 -44 -81 -47
-3 -3 -30 -22 -60 -42 -88 -58 -702 -467 -829 -552 -64 -42 -123 -83 -131 -90
-8 -6 -68 -48 -132 -92 -65 -44 -141 -97 -170 -118 -29 -20 -71 -46 -93 -57
-22 -11 -58 -34 -80 -50 -22 -17 -76 -56 -120 -86 -44 -31 -103 -72 -131 -93
-74 -53 -311 -223 -344 -246 -101 -74 -157 -113 -189 -134 -20 -13 -38 -27
-41 -30 -3 -4 -21 -18 -40 -31 -19 -13 -37 -27 -40 -30 -3 -3 -36 -28 -75 -55
-38 -27 -127 -92 -198 -145 -70 -52 -153 -112 -185 -132 -50 -32 -158 -113
-463 -348 -46 -35 -104 -79 -129 -98 -25 -18 -57 -43 -71 -55 -15 -12 -50 -40
-79 -62 -29 -22 -69 -53 -90 -70 -21 -16 -61 -48 -90 -70 -29 -22 -93 -73
-144 -113 -142 -114 -196 -155 -231 -177 -32 -20 -95 -68 -124 -95 -9 -8 -45
-37 -80 -65 -35 -27 -84 -67 -110 -89 -63 -52 -76 -62 -161 -130 -41 -33 -79
-65 -85 -71 -5 -6 -28 -24 -50 -40 -21 -17 -47 -37 -56 -45 -19 -18 -86 -74
-165 -138 -32 -26 -70 -58 -84 -69 -62 -54 -130 -111 -175 -148 -26 -22 -64
-55 -84 -72 -20 -18 -39 -33 -43 -33 -10 0 -136 -106 -428 -360 -96 -84 -199
-173 -229 -199 -29 -25 -61 -53 -70 -62 -25 -23 -381 -339 -423 -373 -92 -78
-134 -114 -168 -146 -21 -19 -57 -53 -82 -75 -91 -83 -242 -221 -272 -250 -18
-16 -78 -73 -135 -125 -56 -52 -131 -122 -166 -155 -167 -160 -294 -277 -330
-307 -55 -45 -222 -207 -649 -630 -199 -197 -363 -358 -366 -358 -8 0 -494
-500 -723 -743 -62 -66 -172 -180 -246 -255 -74 -75 -185 -194 -248 -264 -63
-70 -118 -128 -122 -130 -4 -2 -128 -138 -275 -303 -147 -165 -282 -313 -300
-330 -37 -34 -186 -199 -261 -290 -44 -53 -158 -183 -261 -297 -19 -20 -34
-40 -34 -43 0 -4 -39 -51 -87 -105 -240 -271 -390 -446 -555 -648 -24 -29 -65
-79 -93 -111 -27 -32 -70 -84 -95 -116 -25 -32 -61 -76 -81 -99 -34 -40 -170
-207 -219 -270 -14 -18 -38 -46 -53 -62 -50 -53 -107 -121 -107 -129 0 -4 -19
-29 -42 -55 -24 -26 -68 -80 -98 -121 -30 -40 -70 -89 -88 -110 -17 -20 -32
-40 -32 -43 0 -4 -18 -28 -39 -54 -22 -26 -62 -76 -90 -112 -27 -36 -66 -85
-85 -110 -84 -104 -126 -160 -126 -167 0 -5 -22 -31 -48 -60 -26 -28 -65 -75
-87 -104 -22 -28 -59 -76 -82 -105 -24 -30 -43 -57 -43 -60 0 -4 -20 -31 -45
-60 -25 -28 -45 -55 -45 -59 0 -3 -18 -28 -40 -54 -22 -26 -40 -51 -40 -55 0
-4 -20 -32 -45 -60 -25 -29 -45 -57 -45 -61 0 -4 -18 -29 -40 -55 -22 -26 -40
-51 -40 -55 0 -4 -20 -31 -45 -59 -25 -29 -45 -57 -45 -61 0 -4 -20 -32 -45
-61 -25 -28 -45 -57 -45 -62 0 -5 -18 -28 -40 -51 -22 -22 -40 -44 -40 -47 0
-3 -20 -31 -45 -63 -25 -31 -45 -61 -45 -65 0 -4 -18 -29 -40 -55 -22 -26 -40
-51 -40 -55 0 -4 -18 -31 -40 -59 -73 -94 -140 -186 -140 -193 0 -3 -16 -27
-35 -52 -79 -105 -135 -183 -135 -189 0 -3 -15 -24 -33 -47 -19 -23 -40 -52
-47 -66 -7 -14 -45 -67 -84 -118 -39 -51 -80 -108 -90 -125 -11 -18 -34 -51
-53 -74 -18 -23 -33 -45 -33 -49 0 -4 -17 -30 -37 -58 -43 -58 -113 -159 -128
-184 -5 -9 -26 -39 -46 -67 -20 -27 -42 -61 -49 -75 -7 -14 -31 -48 -52 -76
-21 -28 -38 -54 -38 -58 0 -4 -18 -31 -40 -60 -22 -29 -40 -56 -40 -60 0 -4
-20 -34 -45 -66 -25 -32 -45 -61 -45 -65 0 -3 -9 -16 -21 -28 -11 -12 -32 -42
-47 -67 -14 -25 -43 -68 -64 -96 -21 -28 -38 -54 -38 -58 0 -4 -18 -31 -40
-61 -22 -30 -40 -57 -40 -61 0 -3 -20 -35 -45 -70 -25 -34 -45 -66 -45 -71 0
-4 -21 -35 -45 -67 -25 -33 -45 -63 -45 -68 0 -5 -18 -33 -40 -62 -22 -29 -40
-56 -40 -60 0 -4 -20 -36 -45 -70 -25 -35 -45 -67 -45 -70 0 -4 -35 -57 -78
-119 -43 -62 -85 -124 -93 -140 -8 -15 -30 -51 -50 -80 -20 -28 -55 -83 -79
-122 -24 -38 -60 -95 -82 -127 -21 -31 -41 -64 -45 -75 -5 -10 -26 -45 -47
-78 -90 -138 -126 -195 -126 -200 0 -4 -19 -34 -42 -68 -24 -34 -49 -74 -58
-88 -8 -15 -28 -47 -44 -70 -68 -102 -116 -179 -116 -187 0 -5 -18 -34 -40
-66 -22 -31 -40 -60 -40 -63 0 -4 -19 -35 -42 -70 -22 -35 -48 -77 -57 -93
-25 -45 -80 -139 -121 -205 -65 -107 -102 -169 -136 -227 -18 -31 -42 -67 -53
-79 -12 -13 -21 -28 -21 -33 0 -6 -20 -41 -45 -78 -25 -37 -45 -72 -45 -78 0
-6 -17 -37 -38 -68 -21 -31 -41 -65 -45 -75 -4 -9 -25 -44 -47 -77 -22 -32
-40 -63 -40 -68 0 -5 -18 -37 -41 -72 -22 -35 -45 -73 -49 -85 -5 -12 -25 -47
-44 -78 -20 -31 -36 -60 -36 -64 0 -4 -21 -39 -45 -77 -25 -38 -45 -73 -45
-78 0 -4 -18 -35 -40 -67 -22 -32 -40 -62 -40 -66 0 -4 -20 -40 -45 -79 -25
-40 -45 -76 -45 -79 0 -4 -20 -39 -45 -79 -25 -40 -45 -76 -45 -81 0 -4 -16
-33 -36 -64 -19 -31 -39 -66 -44 -78 -5 -12 -27 -52 -49 -89 -23 -36 -41 -71
-41 -77 0 -5 -16 -35 -36 -66 -19 -31 -39 -66 -44 -78 -5 -12 -27 -52 -49 -89
-23 -36 -41 -69 -41 -72 0 -3 -15 -29 -34 -58 -18 -29 -45 -75 -58 -102 -45
-90 -115 -220 -142 -262 -14 -23 -26 -46 -26 -51 0 -5 -18 -40 -40 -79 -22
-38 -40 -72 -40 -75 0 -4 -20 -41 -45 -83 -25 -41 -45 -80 -45 -86 0 -5 -18
-40 -40 -77 -22 -37 -40 -72 -40 -78 0 -5 -12 -28 -27 -49 -23 -33 -55 -92
-136 -249 -8 -16 -27 -52 -42 -80 -14 -27 -38 -75 -51 -105 -14 -30 -41 -80
-60 -111 -19 -31 -34 -62 -34 -69 0 -6 -18 -42 -40 -80 -22 -38 -40 -74 -40
-80 0 -6 -20 -46 -45 -89 -25 -43 -45 -83 -45 -89 0 -7 -20 -44 -45 -84 -25
-40 -45 -78 -45 -84 0 -7 -18 -44 -40 -83 -22 -39 -40 -74 -40 -78 0 -4 -39
-86 -86 -183 -47 -96 -92 -186 -98 -200 -7 -14 -26 -52 -42 -85 -16 -33 -52
-105 -78 -160 -27 -55 -55 -111 -62 -125 -22 -42 -127 -261 -195 -405 -20 -44
-57 -123 -81 -175 -25 -52 -66 -142 -92 -200 -27 -58 -68 -148 -93 -200 -88
-184 -121 -256 -163 -350 -23 -52 -62 -137 -86 -188 -24 -51 -44 -97 -44 -103
0 -6 -18 -48 -40 -94 -22 -46 -40 -88 -40 -94 0 -6 -20 -52 -44 -103 -83 -172
-136 -289 -136 -299 0 -5 -12 -33 -26 -62 -15 -29 -37 -79 -49 -112 -13 -33
-40 -98 -60 -145 -51 -115 -110 -257 -126 -300 -7 -19 -27 -65 -46 -102 -18
-37 -33 -73 -33 -79 0 -6 -20 -54 -45 -106 -25 -52 -45 -100 -45 -107 0 -7
-18 -52 -40 -100 -22 -47 -40 -92 -40 -100 0 -7 -20 -57 -45 -110 -25 -54 -45
-103 -45 -110 0 -8 -18 -54 -40 -104 -22 -49 -40 -95 -40 -100 0 -6 -20 -57
-44 -114 -111 -261 -136 -324 -136 -335 0 -7 -18 -54 -40 -104 -22 -51 -40
-98 -40 -105 0 -7 -20 -59 -45 -117 -25 -58 -45 -112 -45 -119 0 -7 -17 -56
-39 -108 -21 -52 -44 -113 -51 -135 -7 -22 -28 -72 -46 -112 -19 -39 -34 -78
-34 -87 0 -9 -20 -66 -45 -126 -25 -60 -45 -115 -45 -123 0 -8 -18 -58 -40
-112 -22 -54 -40 -104 -40 -112 0 -7 -20 -64 -43 -125 -24 -62 -54 -144 -67
-183 -13 -38 -31 -87 -41 -107 -11 -21 -19 -44 -19 -52 0 -8 -16 -56 -36 -108
-20 -51 -45 -120 -54 -153 -22 -74 -69 -212 -127 -368 -23 -65 -43 -126 -43
-135 0 -9 -20 -69 -43 -132 -60 -159 -117 -327 -127 -375 -5 -22 -27 -89 -49
-149 -23 -60 -41 -115 -41 -123 0 -14 -28 -104 -111 -353 -43 -130 -54 -164
-102 -320 -42 -137 -64 -210 -174 -575 -24 -82 -62 -206 -84 -275 -21 -69 -39
-133 -39 -143 0 -9 -20 -80 -45 -157 -25 -77 -45 -148 -45 -158 0 -9 -20 -82
-45 -160 -25 -79 -45 -152 -45 -163 0 -11 -18 -76 -39 -147 -22 -70 -46 -154
-54 -187 -8 -33 -28 -109 -45 -170 -61 -220 -111 -411 -116 -445 -3 -19 -24
-95 -46 -168 -22 -72 -40 -140 -40 -150 0 -9 -17 -84 -39 -167 -40 -153 -76
-296 -110 -440 -11 -44 -31 -127 -45 -185 -51 -207 -66 -268 -106 -440 -22
-96 -41 -181 -40 -188 0 -6 -20 -94 -45 -194 -25 -100 -45 -193 -45 -205 0
-13 -16 -83 -35 -155 -19 -73 -39 -160 -43 -193 -5 -33 -27 -147 -50 -252 -23
-106 -61 -280 -84 -385 -23 -106 -45 -218 -49 -248 -4 -30 -23 -129 -42 -220
-19 -91 -38 -187 -41 -214 -3 -27 -24 -137 -45 -245 -62 -309 -122 -634 -121
-656 0 -11 -20 -132 -45 -270 -75 -418 -135 -779 -135 -805 0 -14 -18 -137
-40 -275 -68 -428 -130 -849 -130 -880 0 -16 -17 -156 -39 -310 -22 -154 -49
-356 -60 -450 -11 -93 -31 -260 -45 -370 -13 -110 -29 -245 -34 -300 -6 -55
-26 -242 -46 -415 -19 -173 -40 -362 -44 -420 -5 -58 -23 -249 -40 -425 -100
-1028 -147 -1721 -147 -2160 0 -388 27 -629 90 -816 14 -40 25 -79 25 -86 0
-24 98 -218 134 -264 18 -24 35 -49 37 -56 10 -29 159 -172 229 -220 68 -46
234 -133 255 -133 9 0 49 -11 87 -25 174 -63 421 -108 688 -125 85 -5 722 -15
1415 -20 1192 -10 1493 -15 2500 -40 1025 -26 3480 -109 5855 -200 383 -14
1089 -38 1665 -55 468 -14 723 -21 1618 -45 1227 -34 1700 -22 2059 51 147 29
312 94 391 153 46 34 157 138 157 148 0 4 18 35 40 67 42 62 113 235 130 318
52 255 78 444 90 648 5 88 26 358 45 600 20 242 40 514 45 605 8 152 47 545
70 718 6 40 10 96 10 123 0 27 18 186 40 352 23 166 45 349 50 407 5 58 23
195 40 305 17 110 35 244 40 297 5 53 27 211 49 350 22 139 44 285 49 323 11
89 72 456 123 740 21 121 39 231 39 245 0 14 20 124 44 245 25 121 49 247 54
280 9 66 60 326 98 505 14 63 34 162 46 220 11 58 40 193 64 300 24 107 44
203 44 213 0 10 18 96 40 190 113 480 135 574 171 717 22 85 39 163 39 173 0
9 19 83 41 165 23 81 45 165 49 187 6 37 31 129 131 495 22 80 40 151 39 158
0 13 42 161 131 457 21 72 39 137 39 145 0 8 20 77 45 153 25 75 45 145 45
154 0 15 57 203 111 368 11 33 29 89 40 125 11 36 41 130 66 210 25 80 64 201
86 270 21 69 51 159 64 200 14 41 34 104 46 140 11 36 38 109 59 164 21 54 38
106 38 115 0 9 20 69 45 133 25 65 45 124 45 131 0 8 19 65 43 128 42 110 62
167 108 302 12 34 42 109 66 167 24 58 43 112 43 121 0 8 18 57 40 108 22 50
40 98 40 106 0 7 20 61 45 121 25 59 45 112 45 119 0 7 20 58 45 115 25 57 45
108 45 114 0 12 55 148 127 310 23 55 43 105 43 113 0 7 18 52 40 99 22 48 40
92 40 99 0 7 20 56 45 109 25 54 45 103 45 110 0 7 20 54 45 105 25 51 45 99
45 107 0 13 14 45 126 282 24 51 44 97 44 103 0 10 30 78 126 292 24 53 65
143 90 200 49 108 91 199 170 362 26 55 66 138 87 185 22 47 60 126 84 175 23
50 82 171 129 270 105 220 132 272 156 307 10 14 18 31 18 38 0 6 18 42 40 80
22 38 40 75 40 82 0 7 7 24 16 36 9 13 59 107 111 210 177 346 322 620 343
647 8 10 32 54 125 231 23 44 54 99 69 122 14 23 26 45 26 50 0 4 20 41 45 81
25 40 45 77 45 82 0 5 16 33 35 64 19 30 39 65 44 78 5 13 25 48 44 78 18 30
44 75 57 102 13 26 27 47 32 47 4 0 18 21 31 48 13 26 40 73 60 105 20 31 37
61 37 65 0 4 21 38 45 76 25 38 45 73 45 78 0 5 17 35 38 66 21 31 41 65 45
75 4 9 25 44 47 77 22 32 40 63 40 67 0 4 18 35 40 68 22 33 40 64 40 69 0 5
20 37 45 72 25 34 45 68 45 74 0 7 18 35 40 62 22 28 40 54 40 59 0 4 20 37
45 72 25 36 45 68 45 71 0 6 34 60 126 201 21 33 42 68 46 77 4 10 25 43 48
73 22 30 40 58 40 63 0 5 14 28 31 51 16 23 39 58 50 78 11 20 36 56 55 81 19
25 34 49 34 54 0 5 38 62 85 127 47 66 85 122 85 125 0 4 19 32 41 62 23 30
49 67 58 83 9 16 43 68 76 116 33 48 67 99 75 114 8 14 33 51 55 81 22 30 45
62 50 72 6 9 32 47 58 85 26 37 63 91 82 118 19 28 50 71 70 97 19 25 35 51
35 57 0 5 6 14 13 18 15 10 77 88 77 98 0 4 18 29 40 55 22 26 40 51 40 55 0
5 18 31 39 59 42 55 90 121 145 201 19 28 55 77 80 110 25 33 62 83 81 110 63
89 99 139 143 193 23 30 42 57 42 60 0 4 17 24 37 46 37 39 49 55 112 143 19
26 48 65 65 85 17 20 51 64 76 98 25 33 61 81 80 104 19 24 58 74 85 110 85
113 231 299 269 342 20 23 36 44 36 48 0 3 42 54 93 114 50 59 117 139 147
177 30 39 57 72 60 75 3 3 35 41 70 85 36 44 80 99 100 122 19 23 58 69 85
102 51 62 80 98 215 256 41 48 80 96 86 106 6 11 48 56 92 101 45 45 82 86 82
91 0 5 59 73 130 152 72 78 130 146 130 149 0 8 408 465 528 591 47 50 120
126 162 170 42 44 119 127 171 185 52 58 113 123 135 145 21 23 95 101 164
175 155 166 1331 1346 1347 1351 9 3 130 117 422 399 20 19 97 91 171 160 168
157 168 157 286 265 54 50 121 111 149 137 27 26 53 48 57 48 4 0 18 10 31 23
56 52 108 99 207 187 127 113 167 149 195 175 11 11 37 33 56 49 30 26 107 92
208 183 46 40 378 329 421 366 17 15 35 27 39 27 4 0 48 35 97 78 50 42 112
95 139 117 27 22 58 49 70 60 12 11 39 33 60 50 22 16 47 36 55 45 9 8 38 33
65 55 27 22 67 56 90 75 23 19 61 51 85 70 23 19 59 49 79 66 20 16 48 39 62
50 14 10 86 64 160 120 166 125 325 234 341 234 7 0 24 9 38 20 22 18 241 156
353 222 21 13 53 32 70 43 41 26 388 220 487 273 41 21 118 62 171 90 196 103
685 350 709 357 14 4 169 79 345 167 291 146 417 211 590 303 33 18 101 53
150 80 226 120 342 187 607 350 81 49 160 97 175 105 51 28 128 73 133 79 3 3
39 29 80 56 266 179 559 421 790 655 166 168 311 323 324 348 5 9 29 40 52 69
24 28 44 54 44 58 0 4 20 33 45 65 25 32 45 61 45 65 0 3 18 33 40 65 22 32
40 62 40 65 0 3 16 31 36 62 19 30 46 79 59 107 13 28 35 71 48 96 50 91 197
448 197 477 0 8 20 79 44 157 47 151 100 357 123 471 8 39 25 120 38 180 89
411 151 959 185 1645 12 240 12 1070 0 1365 -24 599 -44 966 -82 1510 -22 325
-44 682 -49 795 -4 113 -13 264 -18 335 -11 141 -23 333 -43 685 -16 274 -17
1318 -4 4176 7 1490 6 2299 -3 3000 -15 1258 -30 1640 -81 2074 -10 91 -21
194 -25 230 -3 36 -19 124 -36 195 -16 72 -36 157 -44 190 -8 33 -23 85 -34
115 -11 30 -31 84 -44 120 -13 36 -40 91 -60 123 -20 32 -37 60 -37 64 0 12
-94 127 -124 152 -15 14 -35 31 -43 39 -29 30 -170 103 -233 122 -131 38 -322
49 -498 29z"/>
<path d="M57850 68093 c-76 -8 -257 -35 -290 -43 -132 -33 -175 -45 -250 -70
-142 -47 -378 -154 -457 -208 -15 -10 -48 -32 -73 -48 -40 -26 -109 -75 -150
-107 -9 -7 -32 -24 -52 -40 -21 -15 -52 -41 -70 -57 -18 -17 -39 -32 -48 -35
-45 -14 -382 -392 -490 -549 -25 -36 -64 -92 -87 -124 -23 -31 -43 -61 -43
-65 0 -5 -13 -28 -30 -51 -16 -24 -40 -63 -53 -87 -13 -24 -53 -93 -88 -154
-95 -163 -339 -681 -339 -720 0 -5 -20 -59 -45 -119 -25 -59 -45 -113 -45
-119 0 -6 -18 -55 -40 -108 -22 -54 -40 -104 -40 -111 0 -7 -20 -76 -44 -153
-74 -230 -136 -439 -136 -458 0 -9 -14 -65 -31 -124 -17 -60 -36 -128 -41
-153 -5 -25 -29 -130 -53 -235 -52 -228 -113 -538 -133 -670 -5 -33 -25 -152
-45 -265 -20 -113 -43 -257 -51 -320 -9 -63 -29 -214 -45 -335 -91 -660 -182
-1758 -201 -2400 -5 -181 -15 -467 -22 -635 -16 -393 -16 -2371 1 -2935 6
-225 16 -581 21 -790 15 -609 91 -1711 151 -2180 10 -82 19 -171 19 -198 0
-26 18 -170 40 -320 23 -149 45 -310 50 -357 5 -47 26 -170 46 -275 20 -104
40 -219 45 -255 4 -36 22 -126 39 -200 17 -74 35 -162 39 -195 5 -33 27 -130
50 -216 22 -86 41 -165 41 -176 0 -11 18 -76 40 -144 22 -68 40 -133 40 -143
0 -17 43 -158 115 -371 74 -222 131 -375 190 -505 23 -52 62 -138 85 -190 23
-52 53 -116 67 -142 123 -241 166 -319 204 -375 16 -23 29 -44 29 -48 0 -35
393 -535 421 -535 5 0 9 -4 9 -9 0 -5 32 -40 72 -78 39 -37 81 -77 92 -88 12
-12 64 -54 116 -96 89 -69 126 -96 255 -178 52 -33 249 -133 320 -162 93 -38
261 -91 314 -99 31 -5 108 -18 171 -29 246 -42 555 -51 788 -21 361 47 562
104 823 234 307 154 548 343 827 652 51 56 92 106 92 111 0 5 12 20 26 34 28
26 144 175 144 184 0 3 17 32 39 63 75 111 131 202 131 212 0 5 20 41 45 79
25 38 45 75 45 81 0 6 18 42 40 80 22 38 40 73 40 79 0 6 20 52 44 103 111
233 126 267 126 280 0 8 18 55 39 104 21 50 46 115 54 145 8 30 29 95 46 144
35 99 109 346 133 440 8 33 29 112 46 175 17 63 35 138 40 165 5 28 23 115 40
195 48 222 112 585 122 685 5 50 20 173 34 275 26 194 39 327 56 600 6 91 13
195 17 233 l6 67 -455 0 -454 0 -12 -152 c-39 -509 -97 -937 -179 -1318 -20
-91 -39 -187 -43 -215 -4 -27 -26 -114 -49 -192 -23 -78 -41 -147 -41 -155 0
-20 -78 -260 -125 -383 -23 -60 -45 -122 -48 -136 -4 -15 -25 -65 -47 -113
-22 -47 -40 -91 -40 -98 0 -7 -18 -46 -40 -86 -22 -40 -40 -78 -40 -84 0 -6
-20 -44 -45 -86 -25 -41 -45 -79 -45 -85 0 -5 -18 -36 -40 -68 -22 -32 -40
-63 -40 -67 0 -11 -71 -106 -82 -110 -4 -2 -8 -8 -8 -14 0 -6 -20 -35 -45 -64
-25 -28 -45 -55 -45 -59 0 -10 -160 -187 -219 -243 -310 -295 -653 -450 -1067
-483 -305 -25 -597 33 -852 168 -81 43 -229 140 -264 172 -9 9 -50 45 -90 81
-101 89 -338 363 -338 390 0 5 -20 32 -45 61 -25 29 -45 57 -45 61 0 5 -18 36
-40 68 -22 32 -40 63 -40 68 0 6 -18 40 -41 77 -22 37 -43 74 -46 83 -2 10
-22 53 -43 97 -55 113 -130 288 -130 300 0 6 -15 46 -34 90 -56 133 -212 621
-233 730 -5 28 -24 106 -41 175 -55 217 -112 465 -118 516 -3 27 -26 152 -50
277 -24 126 -44 245 -44 265 0 20 -13 114 -30 208 -16 95 -34 216 -39 270 -6
55 -25 214 -41 354 -35 301 -54 497 -75 790 -9 118 -25 330 -36 470 -11 140
-24 388 -29 550 -5 162 -14 399 -19 525 -46 1003 -50 2714 -11 3675 26 638 31
754 45 980 27 453 82 1062 126 1380 16 118 29 231 29 250 0 19 18 150 40 290
22 140 45 289 51 330 6 41 26 146 45 232 19 86 34 169 34 184 0 30 74 352 127
554 20 74 38 149 40 165 3 17 24 91 47 165 24 74 48 153 53 175 15 56 68 210
119 342 24 62 44 117 44 124 0 15 121 284 181 401 52 103 110 211 132 245 15
24 27 45 27 49 0 3 20 35 45 71 25 35 45 66 45 69 0 3 20 32 45 64 25 32 45
63 45 67 0 5 12 20 26 34 15 13 36 40 49 59 27 43 267 290 281 290 6 0 28 15
50 33 126 106 359 236 514 286 387 124 829 103 1190 -57 135 -60 316 -172 394
-244 11 -10 23 -18 27 -18 32 0 317 -326 384 -439 5 -9 22 -34 37 -57 46 -70
218 -398 218 -418 0 -6 20 -51 45 -100 25 -49 45 -96 45 -104 0 -8 20 -66 45
-129 25 -62 45 -121 45 -130 0 -9 16 -66 36 -127 20 -61 39 -131 44 -156 4
-25 26 -119 48 -210 44 -178 96 -447 112 -575 57 -462 74 -617 90 -830 5 -77
10 -200 10 -272 l0 -133 458 0 457 0 -3 107 c-10 438 -55 1013 -104 1338 -16
110 -33 232 -37 271 -12 104 -77 436 -123 624 -23 91 -43 179 -45 195 -5 35
-78 274 -129 425 -20 58 -40 122 -45 142 -5 21 -27 79 -49 130 -22 51 -40 98
-40 103 1 34 -180 411 -233 485 -9 13 -17 30 -17 38 0 7 -18 40 -40 72 -22 33
-43 68 -47 77 -4 10 -26 45 -50 78 -24 32 -43 63 -43 68 0 5 -17 30 -37 56
-21 25 -42 53 -48 62 -51 83 -357 419 -383 419 -5 0 -20 11 -33 24 -13 12 -49
43 -79 67 -362 291 -786 464 -1260 514 -120 13 -436 18 -530 8z"/>
<path d="M76045 68093 c-220 -19 -480 -83 -710 -176 -100 -40 -338 -175 -425
-240 -111 -83 -319 -250 -348 -279 -88 -90 -332 -378 -332 -393 0 -3 -17 -27
-39 -53 -21 -26 -44 -58 -51 -72 -7 -14 -31 -48 -52 -76 -21 -28 -38 -54 -38
-58 0 -4 -18 -34 -40 -66 -22 -32 -40 -63 -40 -67 0 -5 -13 -30 -29 -55 -65
-102 -231 -425 -231 -449 0 -5 -20 -50 -45 -99 -25 -49 -45 -95 -45 -101 0 -6
-18 -52 -40 -101 -22 -50 -40 -96 -40 -102 0 -6 -20 -63 -44 -126 -73 -189
-126 -340 -126 -358 0 -9 -20 -78 -45 -151 -25 -74 -45 -142 -45 -150 0 -9
-20 -85 -45 -170 -25 -85 -45 -163 -45 -173 0 -10 -16 -74 -35 -142 -19 -68
-39 -152 -44 -187 -6 -35 -26 -131 -45 -212 -19 -82 -38 -169 -41 -195 -3 -26
-23 -144 -45 -262 -56 -306 -119 -707 -130 -830 -5 -58 -16 -152 -24 -210 -31
-210 -56 -426 -56 -480 0 -30 -7 -111 -15 -180 -31 -274 -66 -687 -75 -895 -5
-121 -12 -245 -15 -275 -7 -76 -33 -581 -45 -890 -39 -1010 -36 -2472 10
-3510 38 -873 71 -1403 116 -1848 13 -134 24 -263 24 -285 0 -23 18 -197 40
-387 70 -586 172 -1244 247 -1590 20 -91 40 -187 45 -215 17 -94 90 -400 130
-540 22 -77 42 -151 44 -165 9 -45 95 -322 135 -437 21 -61 39 -116 39 -123 0
-6 20 -62 45 -123 25 -62 45 -118 45 -125 0 -19 129 -306 230 -512 80 -163
139 -272 200 -370 29 -47 65 -104 79 -127 52 -83 106 -159 143 -197 21 -22 38
-44 38 -48 0 -5 17 -27 38 -51 21 -23 50 -59 65 -79 34 -47 246 -259 317 -318
29 -25 67 -57 84 -71 59 -50 251 -175 356 -231 222 -119 395 -177 655 -222
318 -55 666 -57 950 -5 61 11 137 24 170 29 200 31 615 220 805 367 8 7 38 29
66 50 133 98 367 326 472 459 35 43 78 97 97 119 45 53 135 173 135 180 0 4
18 32 40 62 22 31 40 60 40 65 0 5 14 30 32 56 18 26 44 70 59 97 45 86 148
284 157 302 5 10 29 61 52 113 24 52 63 136 87 186 23 50 43 97 43 105 0 8 18
56 40 107 22 51 44 109 49 130 5 20 25 80 44 132 39 108 119 358 141 440 8 30
26 93 39 140 24 81 35 125 92 355 48 195 115 500 115 520 0 11 16 94 36 185
20 91 39 197 43 235 4 39 26 183 49 320 23 138 51 324 63 415 12 91 28 212 35
270 8 58 19 159 24 225 5 66 22 237 39 380 16 143 34 330 40 415 6 85 20 286
31 445 48 690 62 997 80 1760 19 786 23 1669 11 2260 -27 1339 -34 1531 -76
2105 -9 113 -20 270 -25 350 -6 80 -15 215 -21 300 -6 85 -26 288 -45 450 -19
162 -34 313 -34 335 1 107 -132 987 -202 1340 -17 88 -36 187 -41 220 -5 33
-29 139 -53 237 -24 97 -44 185 -44 196 0 11 -20 90 -45 176 -25 87 -45 164
-45 172 0 8 -18 70 -40 138 -22 67 -40 130 -40 139 0 10 -19 70 -43 135 -24
64 -54 146 -66 182 -60 174 -82 231 -115 304 -20 43 -36 84 -36 90 0 24 -184
405 -227 470 -18 26 -33 52 -33 57 0 5 -18 38 -40 73 -22 35 -40 66 -40 70 0
4 -20 36 -45 70 -25 35 -45 66 -45 70 0 6 -47 73 -132 189 -93 127 -376 433
-413 447 -7 3 -33 22 -57 42 -83 72 -127 105 -215 163 -48 32 -100 66 -116 77
-49 34 -281 143 -383 181 -200 74 -425 124 -659 147 -93 9 -410 11 -500 3z
m351 -1173 c143 -12 287 -39 409 -77 169 -53 393 -176 540 -297 27 -23 58 -48
69 -56 80 -63 258 -258 326 -359 14 -20 40 -55 58 -78 17 -22 32 -45 32 -49 0
-5 20 -38 45 -74 25 -36 45 -69 45 -74 0 -5 20 -42 45 -83 25 -40 45 -77 45
-81 0 -7 32 -73 127 -263 24 -48 43 -93 43 -100 0 -8 17 -57 38 -109 37 -91
55 -140 107 -295 37 -109 113 -365 124 -415 5 -25 23 -90 40 -145 17 -55 31
-110 31 -121 0 -12 20 -105 45 -205 25 -101 45 -193 45 -204 0 -11 18 -114 40
-230 55 -292 120 -698 130 -824 5 -58 20 -187 34 -286 25 -183 33 -263 62
-600 8 -104 26 -316 40 -470 13 -154 28 -399 34 -545 5 -146 14 -346 20 -445
45 -833 62 -2198 40 -3195 -20 -887 -60 -1774 -105 -2295 -13 -154 -29 -336
-35 -405 -21 -258 -32 -360 -56 -550 -14 -107 -29 -243 -34 -301 -5 -58 -28
-213 -50 -344 -22 -130 -40 -251 -40 -269 0 -17 -16 -110 -36 -206 -19 -96
-39 -205 -44 -243 -4 -37 -26 -147 -49 -245 -39 -166 -54 -227 -103 -427 -11
-44 -36 -134 -55 -200 -19 -66 -40 -138 -45 -160 -6 -22 -25 -85 -44 -140 -19
-55 -39 -116 -45 -135 -7 -19 -27 -73 -45 -120 -18 -47 -41 -110 -52 -140 -32
-90 -127 -306 -189 -425 -14 -27 -39 -77 -56 -110 -17 -33 -43 -79 -59 -102
-15 -23 -32 -51 -36 -63 -4 -11 -22 -40 -40 -63 -74 -97 -132 -179 -132 -186
0 -4 -12 -18 -26 -32 -15 -13 -34 -36 -43 -51 -33 -53 -231 -249 -317 -312
-21 -17 -41 -32 -44 -35 -3 -4 -30 -22 -60 -42 -270 -177 -518 -256 -832 -266
-246 -8 -435 21 -633 99 -84 32 -226 104 -279 141 -202 140 -375 302 -489 455
-18 24 -49 64 -69 90 -21 26 -38 51 -38 57 0 6 -20 33 -45 62 -25 28 -45 55
-45 60 0 5 -12 26 -27 48 -53 78 -202 372 -271 535 -67 158 -132 322 -132 332
0 6 -18 56 -40 110 -22 55 -40 108 -40 117 0 9 -20 76 -45 150 -25 73 -45 140
-45 147 0 8 -20 85 -44 171 -24 87 -48 181 -53 208 -6 28 -24 106 -41 175 -17
69 -38 161 -46 205 -8 44 -29 150 -46 235 -44 228 -108 606 -114 675 -3 33
-23 184 -45 335 -23 151 -41 299 -41 330 0 30 -5 87 -11 125 -39 271 -72 667
-124 1485 -75 1181 -82 3510 -15 4760 36 672 79 1212 126 1590 13 107 24 215
24 240 0 25 16 151 35 280 20 129 40 271 46 315 5 44 24 159 40 255 17 96 35
204 41 240 28 182 154 755 210 950 16 58 36 130 44 160 23 85 103 335 141 440
19 52 39 111 44 130 4 20 26 76 49 127 22 50 40 96 40 102 0 6 38 89 85 185
47 96 85 177 85 180 0 3 20 39 45 79 25 41 45 79 45 84 0 5 18 35 40 67 22 31
40 60 40 64 0 5 20 36 45 70 25 34 45 64 45 67 0 18 287 355 302 355 4 0 16 8
26 18 25 24 120 102 166 137 249 184 524 287 826 308 95 7 121 7 246 -3z"/>
<path d="M38650 67250 l0 -590 1520 2 1520 3 0 -9107 0 -9108 440 0 440 0 0
9105 0 9105 1525 0 1525 0 0 590 0 590 -3485 0 -3485 0 0 -590z"/>
<path d="M47130 58145 l0 -9695 2879 0 c2429 0 2880 2 2884 14 3 7 10 67 17
132 6 66 31 277 55 469 24 193 46 384 49 425 3 41 8 90 12 108 l7 32 -2517 0
-2516 0 0 4285 0 4285 2280 0 2280 0 0 590 0 590 -2280 0 -2280 0 0 3640 0
3640 2398 2 2397 3 3 588 2 587 -2835 0 -2835 0 0 -9695z"/>
<path d="M63310 58145 l0 -9695 436 0 436 0 -5 6323 c-3 3685 -9 6656 -16
7122 -13 978 -29 1918 -41 2445 -5 217 -14 598 -20 845 -13 566 -29 1107 -37
1249 -5 91 -4 108 8 104 8 -2 15 -18 17 -34 2 -16 21 -101 44 -189 22 -88 44
-180 48 -205 5 -25 24 -101 44 -170 20 -68 36 -134 36 -145 0 -11 20 -87 45
-170 25 -82 45 -156 45 -163 0 -8 15 -65 34 -127 19 -63 38 -131 41 -152 4
-21 27 -104 51 -184 24 -81 44 -155 44 -165 0 -10 18 -77 40 -150 22 -73 40
-141 40 -151 0 -10 18 -71 40 -136 21 -65 44 -144 50 -175 5 -31 28 -114 50
-184 22 -69 40 -133 40 -143 0 -9 18 -75 40 -146 22 -72 40 -139 40 -150 0
-11 20 -82 45 -158 25 -76 45 -146 45 -157 0 -10 18 -75 40 -144 22 -69 40
-133 40 -144 0 -10 18 -78 41 -150 22 -72 44 -153 50 -181 5 -27 27 -106 48
-175 42 -135 98 -331 113 -395 6 -22 30 -107 54 -190 24 -82 44 -156 44 -163
0 -15 64 -238 121 -422 21 -69 43 -148 48 -175 6 -28 28 -109 50 -181 23 -72
41 -138 41 -147 0 -8 18 -73 40 -145 22 -71 40 -138 40 -148 0 -11 20 -79 45
-153 25 -74 45 -144 45 -155 0 -12 18 -77 40 -146 22 -69 40 -133 40 -144 0
-10 20 -82 45 -160 25 -79 45 -152 45 -163 0 -12 18 -75 40 -142 22 -66 40
-129 40 -138 0 -10 20 -83 45 -161 25 -79 45 -151 45 -160 0 -10 21 -82 45
-162 25 -80 45 -152 45 -160 0 -8 17 -73 39 -145 21 -71 60 -200 85 -285 25
-85 46 -163 46 -172 0 -9 16 -67 36 -130 19 -62 39 -133 44 -158 4 -25 26
-103 49 -175 22 -71 41 -136 41 -145 0 -8 18 -71 40 -140 23 -69 47 -152 54
-185 7 -33 27 -108 44 -167 75 -254 95 -326 109 -383 8 -33 32 -116 54 -185
21 -69 39 -134 39 -144 0 -10 20 -82 45 -160 25 -79 45 -151 45 -160 0 -10 20
-82 45 -160 25 -79 45 -151 45 -160 0 -17 24 -102 126 -437 24 -80 44 -155 44
-165 0 -11 18 -75 40 -144 22 -69 40 -133 40 -142 0 -10 20 -83 45 -162 25
-80 45 -153 45 -161 0 -9 20 -78 45 -153 25 -75 45 -146 45 -157 0 -11 18 -76
40 -145 22 -69 40 -134 40 -144 0 -11 20 -83 45 -162 25 -78 45 -150 45 -161
0 -11 18 -73 40 -139 22 -65 40 -128 40 -138 0 -11 20 -83 45 -162 25 -78 45
-150 45 -160 0 -11 18 -75 40 -144 22 -69 40 -134 40 -144 0 -10 20 -87 45
-170 65 -216 132 -444 143 -491 12 -53 64 -235 118 -418 24 -81 44 -155 44
-164 0 -9 18 -72 40 -139 22 -68 40 -131 40 -141 0 -10 20 -83 45 -161 25 -79
45 -151 45 -160 0 -10 20 -82 45 -160 25 -79 45 -152 45 -162 0 -10 18 -72 40
-139 22 -66 40 -129 40 -138 0 -10 20 -83 45 -161 25 -79 45 -151 45 -160 0
-10 18 -73 40 -142 22 -69 40 -134 40 -145 0 -11 11 -54 24 -95 29 -94 52
-173 109 -375 25 -88 64 -223 86 -301 23 -77 41 -147 41 -154 0 -8 11 -51 25
-97 l26 -83 579 0 580 0 0 9695 0 9695 -440 0 -440 0 0 -4612 c0 -6674 17
-9194 80 -11433 8 -291 28 -1301 30 -1510 0 -23 -4 -35 -9 -30 -10 11 -81 268
-81 294 0 9 -20 86 -44 171 -24 85 -50 182 -59 215 -22 91 -74 275 -118 417
-21 71 -39 135 -39 145 0 9 -20 85 -44 167 -57 196 -94 326 -113 401 -8 33
-34 123 -59 200 -24 78 -44 148 -44 157 0 9 -20 81 -45 159 -25 78 -45 151
-45 160 0 10 -18 75 -40 144 -22 69 -40 134 -40 143 0 9 -20 82 -44 162 -92
303 -126 419 -126 436 0 9 -20 80 -44 158 -24 77 -46 155 -49 171 -2 17 -22
91 -45 165 -22 74 -59 198 -81 275 -22 77 -60 210 -85 296 -25 85 -46 162 -46
171 0 8 -18 72 -40 141 -22 68 -40 133 -40 144 0 11 -20 80 -45 154 -25 74
-45 143 -45 153 0 11 -20 83 -45 162 -25 78 -45 150 -45 159 0 10 -18 74 -40
142 -22 69 -40 133 -40 142 0 8 -20 81 -44 161 -79 259 -109 364 -121 421 -7
31 -31 115 -54 186 -22 72 -41 139 -41 149 0 11 -18 75 -40 144 -22 69 -40
132 -40 141 0 9 -20 79 -44 155 -24 77 -50 166 -58 199 -14 56 -35 128 -110
385 -17 58 -37 132 -44 165 -7 33 -31 114 -54 180 -22 66 -40 129 -40 140 0
11 -18 76 -40 145 -22 69 -40 132 -40 140 0 8 -20 83 -44 165 -24 83 -66 224
-92 315 -26 91 -64 223 -85 294 -22 70 -39 135 -39 144 0 8 -20 79 -45 158
-25 78 -45 150 -45 160 0 11 -18 75 -40 144 -22 69 -40 133 -40 143 0 11 -20
80 -45 154 -25 74 -45 143 -45 153 0 10 -20 83 -45 162 -25 78 -45 150 -45
160 0 9 -18 74 -40 144 -22 71 -40 136 -40 145 0 10 -20 80 -45 157 -25 77
-45 147 -45 155 0 9 -18 71 -40 139 -22 68 -40 132 -40 142 0 11 -20 83 -45
162 -25 78 -45 150 -45 159 0 10 -20 84 -44 164 -101 334 -126 420 -126 436 0
10 -20 81 -45 159 -25 79 -45 151 -45 160 0 10 -17 75 -38 144 -22 70 -46 154
-54 187 -9 33 -30 105 -46 160 -17 55 -40 134 -51 175 -12 41 -30 109 -42 150
-11 41 -41 143 -65 225 -24 83 -44 158 -44 167 0 10 -20 79 -45 154 -25 74
-45 144 -45 154 0 9 -18 74 -40 143 -22 68 -40 133 -40 143 0 9 -20 81 -45
160 -25 78 -45 149 -45 159 0 16 -25 102 -126 436 -24 80 -44 154 -44 164 0 9
-20 81 -45 159 -25 79 -45 151 -45 162 0 10 -18 75 -40 144 -22 69 -40 133
-40 142 0 9 -18 72 -40 139 -22 67 -46 149 -54 183 -7 33 -27 108 -44 166 -17
58 -52 179 -77 270 -26 91 -60 210 -76 265 -17 55 -37 127 -46 160 -8 33 -30
110 -48 170 l-33 110 -611 3 -611 2 0 -9695z"/>
<path d="M114515 60420 c-27 -5 -77 -11 -110 -15 -73 -9 -183 -58 -257 -114
-54 -40 -132 -125 -154 -166 -6 -11 -24 -45 -41 -75 -43 -76 -78 -224 -102
-430 -124 -1066 -189 -1644 -195 -1732 -3 -42 -22 -206 -41 -365 -20 -158 -40
-342 -45 -408 -5 -66 -20 -210 -33 -320 -14 -110 -32 -270 -41 -355 -9 -85
-34 -312 -56 -505 -22 -192 -40 -363 -40 -380 0 -16 -20 -199 -44 -405 -25
-206 -57 -476 -71 -600 -15 -124 -33 -274 -42 -335 -42 -316 40 -600 224 -776
50 -47 145 -119 158 -119 4 0 44 -18 89 -40 214 -103 432 -161 617 -161 205 0
323 47 468 189 69 67 110 137 165 283 51 134 71 257 196 1244 68 534 114 887
171 1310 22 165 40 311 39 325 0 14 20 178 44 365 25 187 49 381 54 430 5 50
25 225 45 390 70 576 118 1000 117 1041 0 23 11 142 25 265 53 463 52 584 -6
818 -73 297 -231 483 -504 596 -105 43 -470 69 -630 45z"/>
<path d="M3392 58159 c-238 -28 -433 -124 -576 -285 -140 -158 -226 -427 -226
-713 0 -125 39 -534 117 -1211 20 -173 39 -360 44 -415 4 -55 26 -235 48 -399
23 -165 41 -318 41 -340 0 -38 40 -343 75 -571 8 -55 15 -116 15 -135 -1 -31
31 -284 101 -805 11 -82 31 -238 45 -345 13 -107 42 -332 64 -500 22 -168 51
-395 65 -505 54 -423 77 -542 126 -638 16 -32 29 -63 29 -70 0 -22 101 -171
143 -212 84 -81 133 -110 242 -147 61 -20 89 -23 210 -22 148 1 257 21 420 78
109 38 252 101 265 117 3 3 16 12 30 19 71 38 166 124 235 215 54 72 71 103
99 190 55 168 58 292 17 635 -16 135 -50 425 -75 645 -25 220 -64 558 -86 750
-22 193 -40 368 -40 390 0 22 -20 203 -45 403 -25 200 -45 385 -45 412 0 28
-20 213 -45 413 -25 200 -45 384 -45 408 0 24 -18 192 -40 372 -22 180 -40
344 -40 365 0 20 -20 199 -44 397 -25 198 -50 412 -56 475 -13 132 -43 348
-65 465 -10 55 -31 112 -66 182 -93 186 -250 312 -444 357 -138 32 -341 43
-493 25z"/>
<path d="M98845 58132 c-149 -23 -454 -134 -590 -214 -83 -49 -211 -133 -240
-159 -121 -105 -255 -238 -255 -253 0 -5 -18 -28 -40 -53 -22 -25 -40 -52 -40
-59 0 -7 -6 -17 -13 -21 -17 -10 -77 -98 -77 -112 0 -5 -16 -38 -36 -72 -20
-34 -40 -76 -45 -93 -4 -17 -24 -71 -44 -120 -20 -50 -40 -113 -45 -140 -5
-28 -16 -78 -24 -111 -44 -170 -71 -461 -61 -640 20 -333 98 -632 217 -834 21
-34 38 -67 38 -71 0 -5 20 -33 45 -63 25 -31 45 -59 45 -62 0 -20 138 -157
250 -249 175 -143 491 -262 785 -296 114 -13 393 -13 510 0 481 53 883 250
1143 560 66 79 142 184 142 196 0 5 16 32 36 61 70 101 150 360 183 593 28
196 21 434 -20 665 -11 61 -24 139 -30 175 -5 36 -25 111 -44 167 -19 55 -35
106 -35 112 0 7 -20 52 -45 102 -25 50 -45 95 -45 100 0 15 -124 201 -149 223
-11 11 -21 24 -21 30 0 12 -184 204 -240 250 -174 144 -469 279 -730 334 -155
33 -459 64 -525 54z"/>
<path d="M19595 56834 c-283 -28 -532 -83 -685 -151 -145 -65 -304 -154 -363
-204 -235 -197 -251 -214 -358 -374 -94 -141 -209 -401 -229 -518 -5 -29 -18
-90 -29 -137 -38 -161 -46 -249 -46 -490 1 -237 12 -342 51 -484 8 -28 17 -67
20 -86 3 -19 12 -49 20 -67 8 -17 14 -34 14 -37 0 -3 14 -34 30 -68 17 -34 30
-68 30 -75 0 -7 18 -43 40 -79 22 -36 40 -70 40 -74 0 -5 16 -29 35 -54 19
-25 45 -62 58 -83 23 -37 170 -191 232 -243 28 -24 86 -65 190 -133 88 -57
326 -157 375 -157 10 0 53 -9 96 -19 201 -50 515 -68 729 -41 94 11 275 50
360 77 95 30 264 123 348 192 126 102 279 267 320 344 7 12 27 42 46 67 18 25
40 60 48 79 8 18 24 50 37 70 35 56 130 264 174 381 51 138 121 357 176 555
71 252 75 274 65 309 -5 17 -14 60 -20 95 -5 36 -28 120 -50 186 -21 67 -39
127 -39 133 0 11 -59 147 -111 257 -35 75 -88 165 -118 204 -17 21 -31 44 -31
50 0 17 -226 240 -297 293 -34 26 -79 56 -100 68 -21 11 -58 32 -83 46 -111
63 -299 123 -470 150 -91 14 -422 26 -505 18z"/>
<path d="M97660 51140 c-416 -33 -739 -161 -1047 -415 -88 -72 -283 -300 -321
-376 -8 -14 -27 -41 -43 -60 -16 -19 -29 -39 -29 -45 0 -6 -20 -48 -45 -94
-25 -46 -45 -88 -45 -93 0 -6 -18 -55 -39 -111 -42 -109 -104 -324 -120 -421
-40 -232 -53 -528 -31 -675 6 -36 14 -96 20 -135 14 -104 88 -310 146 -407 84
-141 236 -307 350 -382 32 -21 70 -47 84 -56 24 -16 155 -77 215 -100 72 -28
230 -62 355 -76 254 -31 632 -5 887 60 280 71 535 197 720 355 65 56 253 244
253 254 0 4 18 30 40 56 22 26 40 50 40 54 0 3 20 38 45 76 25 38 45 73 45 77
0 4 18 44 39 88 81 165 107 236 176 486 63 232 63 256 -16 600 -41 179 -125
440 -166 516 -18 33 -33 67 -33 76 0 8 -20 46 -45 84 -24 38 -45 72 -45 77 0
15 -110 154 -172 217 -187 192 -429 309 -728 354 -125 19 -359 26 -490 16z"/>
<path d="M21140 50134 c-362 -41 -623 -113 -869 -239 -96 -49 -238 -135 -251
-153 -3 -4 -23 -19 -46 -35 -66 -45 -294 -285 -294 -310 0 -4 -19 -33 -43 -64
-71 -96 -180 -335 -206 -453 -54 -242 -71 -377 -71 -575 0 -273 41 -519 117
-705 67 -164 111 -245 183 -335 52 -65 179 -189 232 -226 18 -13 35 -26 38
-30 13 -16 173 -102 250 -134 193 -78 397 -115 645 -115 365 0 716 70 990 200
90 42 252 134 265 149 3 4 49 42 104 86 93 75 205 191 243 253 9 15 24 36 33
47 10 11 26 36 36 55 10 19 37 67 59 105 22 39 45 84 52 100 6 17 25 64 41
105 47 113 110 324 127 420 8 47 24 137 35 200 11 63 23 153 27 200 5 78 3 95
-31 207 -20 68 -36 129 -36 137 0 14 -83 225 -102 261 -6 10 -30 55 -53 100
-74 143 -172 279 -271 375 -88 87 -94 91 -134 120 -19 13 -37 27 -40 31 -3 4
-44 29 -91 57 -105 60 -216 104 -352 138 -92 24 -123 27 -327 29 -124 2 -241
1 -260 -1z"/>
<path d="M112980 49724 c-232 -39 -348 -109 -488 -295 -23 -31 -42 -61 -42
-68 0 -7 -16 -42 -35 -78 -19 -36 -37 -81 -41 -102 -3 -20 -25 -103 -49 -186
-24 -82 -47 -168 -53 -190 -5 -22 -23 -92 -41 -155 -18 -63 -41 -149 -52 -190
-11 -41 -31 -111 -43 -155 -41 -138 -88 -308 -103 -370 -8 -33 -33 -122 -54
-197 -21 -76 -39 -145 -39 -155 0 -10 -20 -85 -45 -168 -25 -82 -45 -155 -45
-163 0 -7 -18 -73 -40 -147 -22 -74 -40 -141 -40 -151 0 -9 -20 -86 -45 -170
-25 -83 -45 -160 -45 -170 0 -10 -18 -79 -41 -153 -23 -75 -44 -156 -49 -181
-4 -25 -24 -98 -44 -162 -20 -64 -36 -125 -36 -136 0 -10 -20 -86 -45 -168
-25 -82 -45 -158 -45 -168 0 -11 -18 -79 -40 -152 -22 -73 -40 -142 -40 -153
0 -11 -15 -66 -34 -123 -18 -57 -39 -128 -45 -158 -7 -30 -33 -123 -57 -207
-24 -83 -44 -160 -44 -169 0 -10 -18 -77 -40 -150 -22 -73 -40 -141 -40 -151
0 -10 -20 -81 -45 -158 -25 -77 -45 -149 -45 -159 0 -11 -16 -71 -36 -134 -19
-63 -39 -137 -44 -166 -5 -28 -16 -85 -25 -126 -22 -97 -16 -319 9 -400 30
-95 86 -200 138 -259 18 -21 43 -48 54 -62 114 -131 418 -304 649 -371 104
-30 312 -33 388 -5 113 40 189 93 274 186 29 33 53 61 53 64 0 2 20 35 45 71
25 37 45 72 45 78 0 5 15 43 34 83 19 39 38 85 42 101 3 16 22 74 41 129 19
55 40 127 48 160 7 33 31 121 53 195 68 226 105 353 114 395 6 22 30 102 54
177 24 75 44 145 44 155 0 10 18 73 40 138 22 65 40 128 40 140 0 11 18 76 41
145 22 69 44 143 48 165 8 38 49 177 132 446 21 70 39 134 39 143 0 10 20 84
44 164 39 127 74 253 140 492 8 30 28 100 45 155 83 282 121 415 121 430 0 10
17 76 39 149 21 72 44 156 51 186 7 30 28 102 46 159 19 58 34 112 34 120 -1
9 17 81 39 161 51 186 124 465 145 555 10 39 28 106 41 150 12 44 28 107 35
140 6 33 18 87 25 120 27 118 39 295 27 402 -17 148 -85 365 -122 388 -5 3
-16 20 -25 38 -17 36 -101 127 -158 172 -136 108 -335 186 -547 214 -91 12
-276 21 -310 15z"/>
<path d="M4996 47435 c-168 -24 -361 -88 -454 -151 -20 -14 -52 -32 -70 -41
-34 -16 -154 -133 -176 -171 -6 -11 -26 -45 -43 -75 -72 -119 -113 -298 -113
-485 0 -180 23 -307 116 -646 24 -87 44 -166 44 -175 0 -9 19 -88 44 -176 24
-88 51 -187 59 -220 9 -33 27 -98 40 -145 14 -47 32 -112 40 -145 13 -57 34
-131 109 -397 17 -62 35 -131 40 -153 6 -22 23 -85 40 -140 16 -55 37 -127 45
-160 9 -33 35 -125 58 -205 24 -80 45 -158 48 -175 2 -16 21 -86 41 -155 21
-69 58 -195 82 -280 25 -85 61 -207 81 -270 20 -63 39 -135 44 -160 5 -25 26
-101 49 -170 22 -69 40 -132 40 -140 0 -14 56 -202 131 -440 21 -69 39 -134
39 -144 0 -9 20 -79 45 -155 25 -76 45 -146 45 -157 0 -10 18 -74 40 -142 22
-68 40 -131 40 -140 0 -9 20 -80 44 -157 46 -147 100 -328 122 -406 7 -26 31
-85 53 -131 23 -46 41 -88 41 -92 0 -14 114 -170 155 -211 217 -221 495 -239
870 -59 291 140 445 271 550 467 66 124 95 297 75 447 -6 47 -15 112 -19 145
-5 33 -25 112 -45 176 -20 63 -36 123 -36 133 0 9 -20 82 -45 162 -25 79 -45
153 -45 164 0 10 -18 76 -40 145 -22 69 -40 135 -40 146 0 11 -20 86 -45 167
-25 81 -45 156 -45 167 0 11 -18 79 -40 150 -22 72 -45 155 -50 187 -6 31 -24
97 -41 148 -17 50 -34 112 -38 138 -5 26 -27 115 -50 197 -90 323 -122 441
-121 455 0 8 -20 81 -45 162 -25 81 -45 155 -45 165 0 10 -20 85 -45 167 -25
82 -45 158 -45 168 0 11 -18 79 -40 153 -22 74 -40 142 -40 152 0 10 -19 79
-41 153 -23 74 -44 149 -46 165 -3 17 -23 89 -44 162 -21 72 -39 139 -39 147
0 9 -20 85 -44 168 -24 84 -50 180 -58 213 -16 65 -59 216 -119 421 -22 73
-39 139 -39 148 0 9 -20 83 -45 164 -25 81 -45 156 -45 168 0 26 -30 114 -59
174 -11 24 -21 49 -21 56 0 28 -104 162 -167 216 -70 60 -171 117 -258 144
-70 22 -302 27 -429 9z"/>
<path d="M95035 44630 c-354 -56 -706 -190 -920 -350 -44 -33 -83 -60 -87 -60
-26 0 -298 -289 -298 -315 0 -4 -15 -28 -33 -54 -81 -112 -205 -420 -227 -561
-4 -30 -16 -102 -25 -160 -25 -146 -25 -502 -1 -650 10 -58 21 -134 26 -170 5
-36 25 -112 45 -169 19 -58 35 -111 35 -119 0 -8 20 -57 45 -110 25 -52 45
-98 45 -103 0 -10 91 -163 127 -213 15 -22 33 -46 38 -55 53 -84 337 -350 373
-351 8 0 27 -9 43 -20 48 -35 249 -127 334 -154 292 -92 664 -108 992 -41 171
35 422 130 512 194 16 12 34 21 40 21 11 0 57 31 131 88 45 35 240 234 240
245 0 5 20 33 45 61 25 29 45 57 45 62 0 5 21 40 45 78 25 38 45 73 45 77 0 5
16 41 36 81 20 40 41 93 49 118 7 25 28 92 48 150 36 105 79 324 97 495 13
117 12 421 0 510 -13 84 -54 271 -77 340 -8 28 -29 76 -44 108 -16 32 -29 63
-29 70 0 7 -14 35 -31 63 -18 27 -41 65 -53 85 -37 65 -148 193 -231 270 -86
78 -140 116 -240 170 -22 12 -47 27 -55 35 -22 18 -201 107 -345 169 -126 55
-559 186 -606 184 -13 -1 -73 -9 -134 -19z"/>
<path d="M23487 43879 c-174 -18 -411 -74 -538 -126 -189 -77 -403 -215 -517
-333 -104 -107 -262 -304 -262 -326 0 -6 -15 -37 -34 -67 -18 -31 -38 -69 -44
-84 -6 -15 -29 -76 -51 -135 -23 -58 -41 -115 -41 -126 0 -11 -11 -67 -25
-124 -54 -227 -70 -534 -40 -760 18 -140 76 -369 115 -454 16 -37 30 -72 30
-79 0 -7 20 -42 45 -78 25 -37 45 -69 45 -73 0 -4 17 -30 38 -58 21 -28 45
-62 54 -76 37 -58 213 -224 308 -290 503 -354 1330 -453 1848 -223 29 12 55
23 57 23 8 0 179 103 220 132 148 107 327 314 416 483 17 33 40 71 50 84 11
13 19 29 19 36 0 7 16 46 35 87 19 41 39 93 44 114 5 21 26 91 46 154 20 63
40 144 45 180 4 36 16 108 25 160 17 92 16 99 -5 235 -11 77 -26 163 -31 190
-15 78 -77 314 -100 380 -85 244 -149 379 -239 505 -33 47 -71 101 -84 120
-32 46 -171 187 -221 224 -22 17 -42 33 -45 36 -28 36 -241 148 -365 193 -206
74 -528 105 -798 76z"/>
<path d="M109604 39306 c-112 -18 -210 -49 -339 -108 -124 -56 -220 -124 -320
-225 -67 -68 -185 -207 -185 -219 0 -4 -15 -27 -34 -53 -19 -25 -46 -68 -61
-96 -28 -51 -120 -226 -148 -280 -33 -64 -63 -123 -104 -200 -23 -44 -129
-253 -234 -465 -238 -478 -238 -479 -261 -512 -10 -14 -18 -31 -18 -36 0 -5
-20 -46 -45 -90 -25 -44 -45 -85 -45 -91 0 -7 -14 -38 -32 -69 -17 -31 -34
-64 -38 -72 -4 -8 -46 -94 -94 -190 -47 -96 -86 -178 -86 -182 0 -4 -20 -43
-44 -87 -24 -43 -46 -89 -49 -102 -4 -13 -24 -51 -46 -84 -22 -33 -41 -65 -41
-71 0 -6 -38 -86 -84 -177 -46 -91 -87 -176 -91 -188 -4 -12 -22 -48 -41 -80
-19 -31 -34 -62 -34 -68 0 -6 -20 -47 -45 -92 -25 -45 -45 -86 -45 -91 0 -5
-20 -44 -45 -88 -25 -44 -45 -85 -45 -91 0 -7 -18 -40 -40 -75 -22 -35 -40
-69 -40 -75 0 -6 -20 -47 -45 -91 -25 -44 -45 -84 -45 -89 0 -5 -18 -41 -40
-80 -22 -39 -40 -76 -40 -83 0 -7 -4 -16 -9 -21 -5 -6 -57 -102 -114 -215 -57
-113 -111 -218 -120 -235 -8 -16 -25 -50 -37 -75 -13 -25 -29 -52 -37 -61 -8
-9 -22 -38 -32 -65 -11 -27 -33 -80 -49 -119 -45 -104 -91 -277 -104 -391 -20
-172 21 -344 116 -493 134 -208 449 -433 751 -536 174 -59 313 -70 450 -35
210 54 351 188 502 478 29 57 53 107 53 112 0 5 20 41 45 79 25 38 45 74 45
78 0 5 76 162 170 349 93 186 170 342 170 345 0 4 20 43 45 87 25 44 45 86 45
93 0 7 6 20 14 28 8 9 26 41 40 71 30 61 38 78 82 165 17 33 70 141 118 240
49 99 100 203 114 230 26 50 54 107 77 155 15 33 62 126 87 170 10 19 31 60
45 90 14 30 38 78 52 105 35 69 38 76 139 285 49 102 146 300 215 440 69 140
166 341 217 445 50 105 109 226 131 270 33 68 140 290 345 715 25 52 63 131
84 175 20 44 57 123 82 175 25 52 63 133 85 180 22 47 59 123 82 170 41 84 53
118 93 275 31 122 23 262 -21 372 -28 68 -46 94 -106 156 -116 120 -216 168
-570 279 -150 47 -256 56 -391 34z"/>
<path d="M92215 37803 c-201 -26 -352 -76 -536 -179 -78 -44 -221 -142 -279
-191 -14 -12 -56 -47 -95 -80 -200 -167 -449 -420 -640 -649 -33 -39 -105
-124 -160 -189 -55 -64 -109 -130 -120 -145 -11 -15 -36 -47 -55 -70 -86 -104
-123 -147 -144 -170 -12 -14 -48 -56 -78 -95 -31 -38 -79 -98 -107 -133 -28
-34 -51 -66 -51 -71 0 -4 -10 -16 -21 -27 -12 -10 -47 -52 -78 -92 -103 -136
-112 -147 -137 -173 -13 -14 -24 -29 -24 -33 0 -5 -15 -25 -32 -45 -18 -21
-58 -70 -88 -110 -30 -41 -74 -95 -97 -121 -24 -26 -43 -51 -43 -57 0 -5 -12
-20 -26 -34 -30 -27 -213 -251 -230 -281 -7 -11 -28 -37 -48 -57 -20 -20 -36
-41 -36 -47 0 -5 -20 -30 -45 -54 -25 -24 -45 -48 -45 -54 0 -5 -19 -31 -42
-57 -24 -27 -63 -73 -88 -104 -25 -30 -65 -79 -90 -109 -25 -30 -81 -97 -125
-151 -44 -53 -100 -118 -125 -144 -25 -27 -86 -97 -137 -157 -51 -60 -125
-147 -165 -193 -40 -46 -95 -112 -122 -145 -70 -86 -391 -444 -436 -486 -21
-19 -136 -145 -256 -280 -120 -135 -256 -286 -303 -335 -207 -217 -332 -352
-347 -373 -8 -12 -21 -22 -29 -22 -7 0 -25 -15 -40 -32 -63 -76 -932 -957
-963 -977 -11 -6 -308 -290 -427 -406 -22 -22 -101 -96 -174 -165 -74 -69
-151 -141 -171 -160 -19 -19 -78 -73 -129 -120 -52 -47 -111 -102 -133 -122
-22 -21 -44 -38 -48 -38 -5 0 -17 -8 -27 -18 -17 -18 -142 -131 -318 -287 -43
-38 -97 -86 -119 -106 -77 -69 -382 -334 -431 -374 -26 -22 -60 -51 -75 -65
-15 -14 -58 -50 -95 -80 -38 -30 -75 -63 -84 -72 -8 -10 -20 -18 -26 -18 -6 0
-31 -17 -55 -37 -135 -116 -192 -164 -260 -218 -41 -33 -82 -66 -91 -75 -10
-8 -43 -35 -74 -60 -31 -25 -90 -72 -130 -105 -40 -33 -119 -96 -175 -140 -57
-44 -110 -87 -119 -95 -9 -8 -32 -26 -51 -40 -19 -13 -44 -32 -55 -41 -47 -41
-92 -77 -125 -99 -19 -14 -42 -31 -50 -39 -8 -7 -44 -33 -80 -57 -60 -41 -123
-86 -160 -118 -9 -7 -47 -36 -85 -65 -39 -29 -77 -58 -85 -64 -8 -7 -31 -23
-50 -37 -19 -14 -42 -30 -50 -37 -28 -22 -307 -228 -425 -313 -65 -47 -140
-101 -166 -120 -27 -19 -71 -51 -99 -70 -28 -19 -63 -44 -78 -56 -58 -45 -189
-132 -208 -138 -11 -3 -29 -14 -40 -24 -10 -9 -55 -42 -99 -72 -44 -29 -102
-69 -130 -89 -77 -54 -670 -449 -765 -510 -80 -52 -212 -136 -290 -186 -102
-66 -160 -101 -210 -127 -68 -36 -131 -73 -146 -86 -6 -6 -26 -18 -45 -27 -19
-10 -36 -21 -39 -25 -3 -4 -23 -17 -45 -29 -22 -12 -59 -34 -83 -49 -23 -15
-113 -69 -200 -121 -86 -52 -168 -101 -182 -111 -14 -9 -59 -36 -100 -59 -41
-23 -136 -78 -210 -121 -74 -44 -211 -122 -305 -175 -93 -53 -177 -100 -185
-105 -59 -36 -181 -100 -190 -100 -6 0 -45 -20 -88 -44 -71 -40 -247 -135
-452 -244 -47 -25 -114 -61 -150 -80 -108 -58 -1016 -513 -1156 -580 -73 -34
-136 -62 -142 -62 -6 0 -61 -24 -124 -54 -62 -29 -133 -62 -158 -74 -25 -11
-79 -36 -120 -55 -41 -19 -102 -47 -135 -62 -33 -15 -93 -42 -133 -61 -41 -19
-76 -34 -78 -34 -2 0 -43 -18 -90 -40 -47 -22 -88 -40 -91 -40 -2 0 -23 -8
-46 -19 -260 -117 -739 -318 -1087 -455 -107 -43 -208 -84 -225 -91 -16 -7
-43 -17 -60 -20 -16 -4 -178 -64 -360 -132 -295 -112 -406 -153 -690 -253
-620 -219 -1191 -408 -1680 -555 -49 -15 -108 -33 -130 -40 -22 -7 -65 -18
-95 -25 -30 -7 -134 -35 -230 -62 -96 -28 -188 -53 -205 -58 -16 -4 -136 -37
-265 -73 -460 -128 -896 -240 -1330 -343 -58 -14 -132 -32 -165 -39 -577 -139
-1950 -418 -2162 -441 -32 -3 -206 -30 -388 -60 -1872 -304 -3375 -458 -5365
-549 -951 -44 -2548 -51 -3490 -15 -1884 71 -3667 263 -5395 580 -121 22 -232
40 -248 40 -47 0 -595 111 -1112 225 -843 186 -1879 460 -2665 706 -91 28
-192 58 -225 66 -138 35 -594 183 -965 313 -96 34 -187 65 -203 70 -15 5 -82
29 -150 54 -67 25 -207 76 -312 115 -224 83 -502 188 -530 201 -11 5 -146 59
-300 120 -154 61 -293 117 -310 125 -16 7 -43 17 -60 20 -25 6 -337 134 -440
180 -16 8 -124 55 -240 105 -115 51 -252 112 -303 136 -52 24 -95 44 -97 44
-2 0 -41 17 -87 39 -46 21 -105 49 -133 61 -27 13 -104 49 -170 80 -66 32
-151 72 -190 90 -38 18 -182 88 -320 155 -137 67 -261 126 -275 130 -31 10
-325 160 -715 365 -256 134 -943 515 -1015 562 -25 16 -83 48 -130 70 -46 22
-100 51 -120 63 -19 12 -114 69 -210 125 -96 57 -191 113 -210 125 -19 12 -60
37 -90 55 -30 18 -71 43 -90 55 -19 12 -80 50 -135 83 -55 34 -105 65 -111 71
-6 5 -26 17 -45 26 -19 10 -36 21 -39 25 -3 4 -19 14 -36 23 -17 9 -58 33 -90
55 -60 39 -101 65 -259 167 -49 31 -108 70 -130 85 -22 15 -60 38 -85 50 -42
21 -347 221 -535 351 -44 31 -122 84 -174 120 -51 35 -106 73 -121 84 -16 11
-68 47 -117 80 -48 33 -90 62 -93 65 -3 3 -59 44 -125 90 -66 47 -126 90 -133
97 -8 7 -23 18 -34 24 -18 10 -81 55 -128 92 -8 7 -26 17 -40 23 -14 7 -83 55
-155 109 -71 53 -141 105 -155 115 -64 47 -351 265 -490 371 -30 23 -84 65
-120 92 -74 56 -153 119 -160 128 -3 3 -23 18 -45 34 -22 17 -42 32 -45 35
-19 20 -149 120 -155 120 -8 0 -64 42 -156 120 -37 30 -95 77 -130 105 -35 27
-66 53 -69 56 -3 4 -41 35 -85 70 -44 35 -91 74 -105 86 -35 29 -107 90 -164
138 -57 47 -102 85 -166 140 -25 22 -68 58 -94 80 -54 45 -110 92 -170 146
-23 19 -63 52 -90 72 -46 35 -516 448 -582 512 -17 16 -62 57 -99 90 -37 33
-79 71 -94 85 -15 14 -83 77 -151 140 -160 148 -188 173 -229 206 -30 25 -98
89 -330 312 -492 470 -1069 1048 -1381 1382 -69 74 -147 157 -175 185 -196
199 -333 348 -639 690 -191 215 -368 408 -392 431 -24 22 -44 44 -44 48 0 5
-37 50 -83 100 -46 50 -103 116 -127 146 -25 30 -65 78 -90 105 -25 28 -63 72
-85 99 -22 28 -60 73 -85 101 -25 29 -81 96 -125 150 -44 54 -101 121 -128
150 -26 29 -47 57 -47 62 0 6 -17 25 -37 43 -21 18 -49 47 -63 65 -14 18 -52
65 -85 106 -33 40 -84 102 -112 138 -103 130 -139 173 -180 220 -24 27 -43 52
-43 58 0 5 -18 27 -40 48 -22 21 -40 43 -40 47 0 11 -207 272 -297 375 -24 26
-43 51 -43 55 0 4 -17 27 -37 51 -47 55 -123 152 -143 182 -15 22 -90 121
-182 239 -26 34 -59 77 -72 96 -13 19 -38 48 -55 64 -17 17 -31 35 -31 41 0 6
-18 29 -41 50 -23 22 -44 48 -48 57 -15 41 -479 513 -617 629 -120 102 -267
207 -384 277 -65 39 -235 119 -310 147 -274 99 -615 112 -916 34 -256 -66
-579 -213 -864 -394 -203 -128 -329 -216 -538 -374 -84 -64 -171 -129 -195
-145 -48 -33 -184 -135 -201 -151 -6 -5 -29 -23 -51 -39 -22 -17 -42 -32 -45
-35 -3 -4 -41 -33 -85 -66 -44 -33 -84 -65 -90 -71 -5 -6 -26 -22 -45 -34 -19
-13 -37 -27 -40 -30 -4 -5 -61 -50 -224 -175 -55 -43 -91 -70 -197 -152 -100
-77 -156 -119 -286 -220 -46 -34 -86 -63 -89 -63 -4 0 -41 -26 -83 -58 -206
-158 -349 -267 -415 -315 -17 -12 -44 -34 -60 -48 -17 -14 -47 -36 -66 -49
-19 -13 -37 -27 -40 -30 -3 -3 -21 -17 -40 -30 -19 -13 -37 -27 -40 -30 -3 -3
-21 -17 -40 -30 -19 -13 -44 -32 -55 -41 -11 -10 -87 -69 -170 -130 -82 -62
-178 -134 -211 -160 -34 -26 -93 -68 -132 -93 -39 -25 -79 -52 -89 -60 -22
-18 -257 -195 -287 -216 -21 -15 -89 -65 -136 -100 -14 -10 -110 -82 -215
-160 -104 -78 -197 -147 -205 -153 -8 -7 -46 -34 -85 -62 -68 -48 -224 -164
-255 -188 -8 -7 -67 -47 -130 -90 -63 -43 -140 -97 -171 -120 -31 -23 -94 -69
-140 -102 -46 -32 -86 -62 -89 -65 -3 -3 -21 -17 -40 -30 -19 -13 -41 -30 -48
-37 -8 -7 -23 -18 -34 -24 -18 -10 -86 -58 -128 -92 -8 -7 -53 -39 -99 -72
-45 -33 -120 -87 -166 -120 -45 -33 -120 -87 -166 -120 -46 -32 -90 -65 -97
-72 -8 -7 -23 -18 -35 -25 -12 -6 -50 -33 -84 -60 -34 -26 -68 -48 -74 -48 -6
0 -43 -24 -83 -53 -39 -29 -87 -64 -106 -77 -19 -14 -39 -28 -45 -32 -49 -38
-106 -78 -123 -87 -11 -6 -26 -17 -34 -24 -12 -12 -121 -91 -223 -162 -59 -41
-208 -148 -220 -158 -11 -9 -140 -99 -255 -179 -41 -28 -99 -69 -129 -91 -70
-52 -193 -135 -251 -170 -45 -28 -90 -59 -143 -100 -30 -22 -45 -32 -118 -81
-24 -16 -46 -32 -49 -35 -3 -3 -41 -31 -85 -61 -44 -30 -84 -58 -90 -63 -5 -4
-62 -44 -125 -87 -63 -44 -126 -88 -139 -97 -25 -19 -42 -30 -111 -77 -24 -15
-48 -32 -54 -37 -14 -12 -260 -185 -306 -215 -19 -13 -66 -45 -105 -71 -38
-27 -95 -64 -125 -81 -30 -18 -82 -52 -115 -75 -33 -24 -105 -74 -160 -112
-55 -38 -123 -85 -151 -105 -28 -19 -91 -62 -140 -95 -49 -33 -91 -62 -94 -66
-3 -3 -43 -31 -90 -62 -73 -48 -210 -142 -260 -177 -31 -22 -237 -163 -285
-196 -27 -18 -76 -51 -109 -74 -32 -22 -63 -40 -70 -40 -6 0 -22 -9 -36 -20
-14 -11 -56 -41 -95 -67 -173 -116 -250 -168 -255 -174 -3 -3 -23 -16 -45 -29
-22 -13 -42 -27 -45 -30 -3 -4 -45 -33 -94 -66 -48 -32 -101 -68 -116 -79 -15
-11 -50 -35 -76 -54 -27 -19 -51 -37 -54 -40 -3 -4 -23 -20 -45 -36 -99 -74
-239 -198 -360 -320 -113 -114 -205 -217 -205 -229 0 -4 -18 -31 -40 -60 -22
-29 -40 -57 -40 -63 0 -5 -20 -45 -45 -89 -25 -43 -45 -86 -45 -95 0 -9 -9
-42 -21 -75 -33 -97 -49 -199 -49 -324 0 -136 21 -250 82 -450 25 -84 158
-366 213 -455 18 -27 35 -58 38 -68 4 -9 25 -44 47 -77 22 -32 40 -63 40 -67
0 -5 15 -26 32 -48 18 -21 42 -53 53 -71 11 -19 44 -68 74 -111 30 -43 68 -98
85 -123 16 -25 45 -63 63 -84 18 -22 33 -44 33 -49 0 -5 20 -33 45 -61 25 -29
45 -57 45 -61 0 -5 18 -30 40 -56 22 -26 40 -51 40 -55 0 -4 18 -30 40 -58 22
-28 60 -77 85 -108 25 -32 45 -61 45 -65 0 -5 23 -35 51 -68 27 -33 68 -81 90
-107 21 -26 39 -50 39 -53 0 -4 17 -28 38 -54 20 -25 42 -53 47 -62 15 -24 96
-127 132 -169 18 -21 33 -40 33 -44 0 -4 23 -35 50 -69 28 -34 68 -84 88 -110
20 -26 53 -67 72 -91 19 -24 60 -76 90 -116 30 -40 72 -91 92 -115 21 -23 38
-46 38 -50 0 -4 20 -25 45 -47 25 -22 45 -44 45 -50 0 -5 17 -30 38 -55 70
-84 117 -141 167 -203 28 -34 70 -86 95 -116 25 -30 64 -78 88 -106 23 -29 62
-76 85 -104 23 -28 60 -73 82 -100 22 -27 61 -72 87 -100 27 -28 48 -55 48
-59 0 -5 37 -48 82 -96 91 -96 210 -231 303 -344 100 -121 505 -575 578 -646
37 -37 67 -72 67 -78 0 -6 4 -11 9 -11 5 0 80 -80 167 -177 87 -98 176 -196
199 -218 23 -22 84 -87 136 -145 52 -58 113 -123 135 -146 21 -22 154 -158
294 -303 525 -541 976 -990 1675 -1666 127 -123 319 -303 347 -325 15 -11 40
-33 55 -48 16 -15 89 -83 163 -152 74 -69 145 -136 159 -150 15 -13 78 -71
141 -129 63 -58 120 -110 125 -117 6 -6 62 -58 125 -114 63 -57 124 -113 136
-124 43 -43 177 -161 193 -170 15 -9 350 -304 397 -350 12 -12 50 -46 85 -76
62 -54 163 -144 185 -164 6 -6 36 -32 65 -57 30 -26 132 -115 227 -198 95 -83
181 -155 192 -161 11 -6 30 -20 43 -33 31 -29 92 -82 152 -132 27 -22 87 -73
134 -113 119 -102 201 -172 296 -252 69 -58 143 -121 170 -145 13 -11 69 -58
125 -105 57 -47 141 -118 188 -157 47 -40 90 -73 95 -73 5 0 21 -11 35 -24 34
-31 105 -90 162 -136 39 -31 84 -68 160 -133 14 -12 72 -59 130 -106 58 -46
121 -98 141 -115 20 -17 78 -65 128 -106 51 -41 111 -91 135 -110 24 -19 58
-47 77 -62 35 -28 221 -178 252 -204 9 -7 20 -14 23 -14 6 0 110 -80 143 -110
9 -8 35 -28 56 -44 22 -17 42 -33 45 -36 3 -3 23 -19 45 -36 21 -16 47 -36 56
-44 9 -8 40 -33 69 -55 29 -22 72 -56 95 -75 55 -45 72 -59 120 -94 22 -17 42
-33 45 -36 3 -3 23 -19 45 -35 22 -17 42 -32 45 -36 4 -5 80 -64 205 -159 18
-14 57 -44 86 -67 136 -105 240 -183 246 -183 3 0 43 -28 87 -62 68 -52 153
-117 396 -299 14 -10 66 -49 115 -87 50 -37 122 -90 160 -117 39 -28 77 -55
85 -62 54 -43 274 -204 289 -213 11 -5 25 -16 33 -23 7 -7 51 -39 98 -72 47
-32 87 -62 90 -65 3 -3 16 -11 30 -17 14 -6 34 -18 45 -27 11 -9 52 -38 90
-66 39 -27 75 -53 80 -58 21 -17 255 -182 445 -314 41 -28 109 -76 150 -105
41 -29 97 -67 123 -85 26 -18 53 -38 60 -43 7 -6 50 -36 97 -67 47 -32 121
-83 165 -113 116 -81 184 -125 193 -125 5 0 37 -20 73 -45 35 -25 71 -50 79
-55 8 -6 143 -96 300 -201 157 -104 292 -194 300 -200 9 -6 67 -44 130 -84 63
-41 122 -79 130 -85 27 -18 300 -194 348 -224 26 -17 80 -52 120 -78 41 -26
78 -48 84 -48 6 0 47 -24 92 -53 45 -29 110 -71 146 -93 36 -21 67 -42 70 -45
3 -3 21 -14 40 -24 19 -10 37 -21 40 -25 3 -4 23 -17 45 -29 22 -12 60 -35 85
-51 25 -16 61 -39 80 -50 19 -11 76 -46 125 -77 50 -31 126 -78 170 -105 44
-26 87 -53 95 -58 8 -6 32 -21 53 -33 78 -45 353 -210 377 -226 72 -46 171
-104 220 -127 30 -15 118 -64 195 -109 173 -102 247 -145 400 -231 66 -37 131
-75 145 -84 50 -35 1070 -600 1082 -600 6 0 68 -31 137 -69 125 -68 222 -120
356 -191 38 -20 108 -57 155 -82 350 -185 496 -261 948 -489 194 -99 357 -179
363 -179 5 0 94 -41 197 -91 103 -50 252 -123 332 -161 80 -39 199 -96 265
-128 175 -84 333 -159 390 -185 28 -12 118 -54 200 -93 83 -38 173 -80 200
-92 28 -12 77 -35 110 -50 33 -16 123 -56 200 -90 77 -34 161 -72 188 -85 26
-14 66 -29 88 -35 23 -6 65 -22 93 -35 69 -31 142 -63 196 -87 25 -11 60 -26
78 -34 17 -8 49 -21 70 -30 20 -9 55 -25 77 -34 22 -10 90 -39 150 -65 61 -25
124 -52 140 -60 17 -7 75 -32 130 -55 102 -42 155 -65 190 -80 11 -5 76 -32
145 -61 511 -211 1137 -460 1180 -470 31 -6 258 -90 335 -124 38 -16 729 -273
890 -331 66 -23 203 -72 305 -109 440 -158 1288 -445 1316 -445 9 0 101 -27
203 -61 102 -34 206 -67 231 -74 25 -7 104 -32 175 -55 72 -23 150 -48 175
-55 25 -7 83 -25 130 -40 110 -34 492 -150 595 -180 376 -110 934 -267 1185
-335 168 -45 343 -92 390 -105 47 -13 162 -42 255 -64 94 -23 330 -80 525
-127 195 -47 405 -97 465 -111 61 -14 146 -34 190 -44 107 -25 341 -79 385
-89 19 -4 150 -33 290 -64 361 -81 960 -206 1253 -262 70 -13 187 -35 260 -49
517 -100 1505 -270 1707 -295 155 -19 295 -38 685 -95 1069 -155 2086 -270
3230 -365 603 -50 783 -60 920 -55 72 3 294 10 495 15 1444 41 3099 123 4455
220 935 68 1513 117 2635 224 256 25 544 52 640 60 458 42 1668 192 2550 317
321 45 450 64 880 129 797 120 1968 326 2866 504 126 25 242 46 257 46 14 0
113 18 219 41 106 22 258 54 338 70 617 129 1431 317 2139 495 562 140 657
165 1231 320 69 19 172 46 230 60 116 29 708 193 810 224 58 18 294 88 423
126 108 32 146 43 222 67 44 14 139 43 210 65 330 101 715 226 1305 422 212
70 412 135 445 145 65 19 221 73 630 221 516 185 1354 503 1483 560 29 13 55
24 59 24 3 0 113 43 243 95 130 52 242 95 249 95 6 0 85 30 174 66 89 37 198
81 242 99 190 78 981 419 1165 502 30 14 136 61 235 105 99 44 214 96 255 115
148 69 270 123 280 123 6 0 41 14 78 31 187 88 351 165 517 244 101 48 1052
520 1330 660 83 42 197 99 255 128 57 29 151 78 208 110 58 31 107 57 109 57
3 0 48 24 102 54 53 29 132 73 176 96 140 74 869 482 885 495 14 11 146 84
345 190 50 27 92 51 95 55 3 3 37 24 75 45 39 21 81 46 95 55 14 9 117 72 230
139 275 164 572 346 735 449 22 14 56 35 75 47 55 34 150 95 213 137 32 21 63
38 70 38 6 0 27 11 46 24 20 13 83 54 141 91 206 133 539 351 555 363 6 4 64
43 130 87 66 44 122 82 125 85 3 3 23 17 45 30 22 13 45 28 50 33 6 4 24 17
40 27 17 11 73 49 125 85 215 148 264 181 299 200 33 17 468 320 481 335 3 3
41 29 85 59 44 30 82 57 85 61 3 3 37 28 75 55 39 27 101 72 138 100 37 27
126 93 198 145 72 52 168 122 213 156 46 33 114 81 153 106 39 25 80 54 93 64
13 11 37 31 54 45 17 14 47 36 66 49 19 13 37 27 40 30 3 3 21 17 40 30 19 13
37 27 40 30 3 3 23 19 45 35 22 17 42 32 45 35 3 3 23 18 45 35 22 16 46 35
53 42 7 7 17 13 20 13 4 0 18 10 32 23 14 12 43 35 65 52 43 32 61 46 109 86
17 14 47 36 66 49 19 14 44 32 55 42 38 32 103 83 155 123 71 55 161 126 185
148 11 10 32 26 48 35 15 9 27 20 27 24 0 4 6 8 13 8 6 0 57 36 112 81 55 44
115 93 134 107 19 15 53 43 76 62 23 19 84 69 135 110 51 41 112 91 135 110
24 19 62 51 86 70 23 19 61 51 84 70 23 19 63 53 90 75 26 22 58 49 70 60 13
11 53 45 91 75 37 30 77 64 90 75 22 19 91 75 177 143 52 42 108 89 261 221
195 168 227 195 251 216 12 11 48 43 80 70 32 28 70 61 85 75 15 14 53 48 85
75 74 64 157 138 182 161 11 11 48 44 83 74 35 30 70 63 79 73 8 9 20 17 26
17 6 0 26 15 45 33 19 19 87 80 150 137 150 135 176 159 214 195 18 17 77 71
131 120 54 50 111 101 125 115 15 14 74 69 131 122 58 53 132 123 167 156 83
78 140 129 162 145 17 12 233 217 436 412 40 39 191 185 336 324 144 140 450
442 678 671 549 552 597 599 639 640 20 19 110 113 201 209 91 96 188 197 215
225 28 28 106 112 175 186 159 171 273 290 380 399 46 47 165 176 263 286 99
110 194 214 212 230 18 17 115 122 216 235 100 113 197 219 215 235 31 28 70
73 174 194 53 63 65 76 291 333 96 109 221 252 279 318 58 67 117 132 133 145
15 13 27 27 27 30 0 4 38 51 85 104 201 227 255 290 255 296 0 4 35 46 78 93
43 48 85 97 92 108 14 21 100 121 210 245 28 31 50 61 50 67 0 5 19 27 43 48
23 21 65 66 92 100 60 74 105 128 163 193 23 26 42 52 42 56 0 4 21 31 48 60
26 29 70 80 97 114 28 35 66 82 85 105 19 24 71 87 115 141 44 55 113 137 153
184 103 122 263 318 287 351 24 34 65 84 123 149 23 26 42 52 42 58 0 5 12 20
26 34 15 13 36 38 48 55 11 18 76 100 144 183 67 83 122 154 122 157 0 3 33
43 73 88 72 82 158 189 187 232 14 20 29 40 132 166 21 26 38 50 38 54 0 4 17
26 38 49 20 23 60 72 87 109 28 37 66 87 85 110 57 71 124 158 135 175 10 16
26 36 118 148 88 107 137 172 137 181 0 5 8 16 17 23 9 8 41 47 72 88 31 41
79 103 106 139 28 36 55 72 60 81 6 9 30 41 55 73 25 31 63 82 85 112 22 31
60 82 85 115 25 32 61 80 80 105 19 26 50 64 68 84 19 20 45 55 59 77 15 22
41 58 60 81 18 23 33 44 33 48 0 4 18 31 40 60 22 29 40 56 40 60 0 4 20 36
45 70 25 35 45 67 45 71 0 4 18 36 40 71 22 35 40 68 40 73 0 5 20 44 45 87
25 44 45 84 45 90 0 6 16 47 36 90 44 94 107 293 122 384 17 101 23 274 13
395 -10 131 -65 310 -130 425 -23 39 -41 75 -41 80 0 4 -20 35 -45 68 -25 33
-45 64 -45 70 0 5 -7 16 -17 23 -9 8 -33 36 -53 64 -63 84 -220 237 -350 343
-36 29 -74 61 -85 70 -11 10 -42 34 -69 53 -27 19 -85 60 -130 91 -45 32 -112
74 -151 94 -38 20 -77 42 -85 49 -8 7 -30 20 -49 30 -19 9 -39 21 -45 27 -6 5
-29 20 -51 33 -92 55 -112 67 -155 95 -25 15 -83 52 -130 80 -47 28 -104 64
-127 78 -24 15 -154 96 -290 181 -137 84 -264 163 -283 176 -19 12 -60 38 -90
57 -175 111 -301 189 -345 212 -56 30 -83 46 -205 124 -47 30 -101 65 -120 77
-19 12 -75 48 -125 80 -49 32 -106 68 -125 80 -19 12 -62 39 -95 60 -33 21
-76 48 -95 60 -46 29 -121 76 -250 160 -224 145 -277 179 -325 210 -27 17 -89
57 -137 88 -48 32 -93 57 -98 57 -6 0 -23 8 -38 19 -26 18 -126 83 -317 206
-49 32 -130 84 -180 117 -49 32 -97 63 -105 68 -8 6 -55 36 -105 69 -49 32
-139 90 -200 129 -60 40 -117 76 -125 82 -8 6 -64 42 -125 82 -60 39 -167 109
-236 155 -70 45 -131 83 -136 83 -8 0 -139 82 -188 118 -14 9 -88 58 -280 184
-88 58 -248 162 -355 233 -107 70 -276 181 -375 246 -99 65 -184 122 -190 126
-5 5 -28 20 -50 33 -22 13 -42 27 -45 31 -3 4 -25 17 -50 30 -25 12 -124 74
-220 137 -389 256 -566 372 -575 380 -5 4 -28 19 -50 32 -22 13 -42 27 -45 30
-3 3 -23 17 -45 30 -22 13 -44 28 -50 32 -5 5 -93 63 -195 130 -102 67 -225
148 -274 181 -49 32 -99 62 -111 67 -11 4 -68 39 -125 77 -58 38 -188 124
-290 191 -102 67 -189 126 -195 130 -5 4 -28 19 -50 32 -22 13 -44 28 -50 33
-9 8 -151 101 -555 365 -96 63 -193 126 -215 141 -22 15 -59 37 -83 49 -34 18
-214 133 -257 164 -5 4 -50 34 -100 66 -367 238 -479 310 -495 322 -8 5 -53
34 -100 64 -47 30 -140 90 -207 133 -68 43 -140 88 -160 100 -21 12 -43 26
-49 31 -6 6 -26 18 -45 27 -19 10 -36 21 -39 25 -3 4 -24 17 -47 29 -23 11
-44 25 -48 31 -3 5 -14 10 -23 10 -9 0 -44 16 -77 37 -72 43 -248 144 -325
186 -30 16 -69 38 -85 48 -37 22 -272 139 -337 168 -113 50 -137 60 -201 85
-276 109 -601 165 -802 139z"/>
<path d="M8375 37031 c-214 -59 -343 -106 -452 -163 -234 -122 -353 -298 -353
-518 0 -181 53 -314 474 -1185 69 -143 144 -298 167 -345 22 -47 60 -125 84
-175 24 -49 52 -108 61 -130 9 -22 28 -57 41 -77 12 -21 23 -44 23 -52 0 -7
20 -49 43 -92 24 -44 47 -90 50 -104 3 -14 22 -50 42 -80 19 -30 37 -64 40
-75 5 -18 36 -84 119 -250 16 -33 35 -71 41 -85 30 -63 97 -201 126 -260 18
-36 38 -76 45 -90 6 -14 41 -83 77 -155 36 -71 75 -150 87 -175 13 -25 28 -56
35 -70 6 -14 26 -54 44 -90 18 -36 51 -103 74 -150 22 -47 51 -105 63 -130 13
-25 32 -63 43 -85 10 -22 32 -65 47 -95 15 -30 33 -66 39 -80 30 -64 94 -190
127 -250 10 -19 31 -60 45 -90 14 -30 34 -71 45 -90 10 -19 28 -55 40 -80 12
-25 31 -65 44 -90 12 -25 32 -63 43 -85 10 -22 32 -65 47 -95 15 -30 33 -66
40 -80 7 -14 27 -54 45 -90 18 -36 38 -76 44 -90 18 -38 52 -105 102 -200 25
-47 53 -101 62 -120 10 -19 26 -53 37 -75 11 -22 33 -65 48 -95 16 -30 35 -68
44 -85 69 -138 90 -175 119 -212 18 -23 33 -45 33 -49 0 -12 101 -116 146
-150 115 -89 224 -125 374 -125 163 -1 310 39 504 138 92 46 235 133 271 165
11 9 46 39 77 65 57 48 178 175 178 187 0 4 15 28 33 55 33 48 75 163 98 271
16 75 5 245 -22 345 -12 44 -25 96 -29 115 -15 78 -206 484 -304 646 -20 33
-36 66 -36 74 0 9 -4 20 -10 26 -5 5 -78 147 -163 314 -84 168 -158 314 -164
325 -73 143 -140 275 -196 390 -38 77 -80 160 -94 185 -13 25 -33 65 -45 90
-12 25 -35 72 -51 105 -17 33 -34 67 -38 75 -95 193 -158 320 -213 430 -37 74
-73 146 -80 160 -7 14 -24 48 -38 75 -14 28 -85 172 -158 320 -169 346 -180
367 -196 386 -8 8 -14 20 -14 26 0 6 -20 47 -45 92 -25 45 -45 86 -45 91 0 6
-18 42 -40 81 -22 39 -40 75 -40 80 0 6 -20 45 -45 88 -25 43 -45 83 -45 89 0
5 -15 36 -33 69 -18 32 -65 123 -104 203 -39 80 -83 162 -97 183 -14 21 -26
43 -26 50 0 7 -18 40 -40 75 -22 34 -40 67 -40 73 0 6 -20 39 -45 75 -25 35
-45 67 -45 72 0 4 -20 30 -45 59 -25 28 -45 55 -45 60 0 4 -40 49 -88 98 -143
146 -246 218 -427 296 -93 40 -249 74 -385 83 -62 4 -93 0 -175 -23z"/>
</g>
</svg>
